<?xml version="1.0" encoding="utf-8"?>
<!-- Generator: Adobe Illustrator 16.0.0, SVG Export Plug-In . SVG Version: 6.00 Build 0)  -->
<!DOCTYPE svg PUBLIC "-//W3C//DTD SVG 1.1//EN" "http://www.w3.org/Graphics/SVG/1.1/DTD/svg11.dtd">
<svg version="1.1" id="Layer_1" xmlns="http://www.w3.org/2000/svg" xmlns:xlink="http://www.w3.org/1999/xlink" x="0px" y="0px"
	 width="2075.426px" height="1931.248px" viewBox="0 0 2075.426 1931.248" enable-background="new 0 0 2075.426 1931.248"
	 xml:space="preserve">
<g>
	<path fill-rule="evenodd" clip-rule="evenodd" fill="#0D0D0D" opacity="0.3" d="M1904.754,1002.174c-0.528,2.115-1.071,4.288-1.65,6.61
		c10.324,4.967,20.58,9.056,29.965,14.614c13.703,8.118,27.586,16.289,39.964,26.219c28.563,22.913,40.075,53.987,39.301,89.985
		c-0.851,39.556-20.142,69.577-49.509,94.171c-19.126,16.018-41.064,26.029-65.924,28.585c-24.003,2.467-45.277-5.199-64.457-19.405
		c-16.354-12.114-28.482-27.864-39.107-44.941c-0.881-1.414-1.775-2.82-2.605-4.264c-2.326-4.042-4.175-8.449-7.008-12.094
		c-11.585-14.899-16.537-32.762-22.389-50.115c-5.843-17.324-10.518-35.042-15.639-52.606c-1.561-5.353-2.904-10.768-6.293-16.046
		c-0.46,3.464-1.362,6.936-1.312,10.393c0.457,30.913-4.262,61.035-13.442,90.504c-3.763,12.075-6.801,24.443-11.489,36.15
		c-12.643,31.572-32.722,56.532-65.939,68.179c-35.841,12.567-70.752,10.604-103.923-8.88
		c-24.074-14.141-43.574-32.829-55.969-58.244c-13.604-27.893-13.521-55.797,0.058-83.695c11.364-23.35,29.301-41.044,49.006-57.256
		c22.755-18.721,47.751-33.851,74.231-46.634c3.894-1.88,7.71-3.918,11.526-5.95c0.496-0.264,0.778-0.931,1.72-2.119
		c-2.922,0-5.361-0.211-7.752,0.038c-8.601,0.897-17.212,1.768-25.765,3.021c-4.195,0.615-8.261,2.086-12.402,3.104
		c-2.216,0.546-4.655,1.764-6.671,1.292c-16.696-3.903-33.808-1.46-50.634-3.661c-20.173-2.639-40.132-5.854-59.048-13.686
		c-26.621-11.021-45.048-30.194-56.022-56.698c-2.421-5.846-4.993-11.641-7.14-17.586c-3.544-9.818-4.255-19.929-4.284-30.424
		c-0.074-27.037,9.836-51.006,22.594-73.672c15.94-28.318,40.224-46.714,72.676-52.991c13.775-2.665,27.157,0.294,40.337,4.176
		c29.41,8.662,54.021,25.546,76.835,45.347c7.792,6.763,15.005,14.193,22.495,21.307c1.874,1.778,3.796,3.507,7.251,4.446
		c-1.19-3.267-2.318-6.558-3.58-9.796c-9.731-24.96-17.331-50.377-17.382-77.524c-0.105-57.142,35.799-98.101,85.956-111.208
		c28.437-7.432,57.414-6.828,85.468,3.673c42.837,16.035,65.334,47.962,66.159,93.736c0.327,18.149-3.393,35.707-8.191,53.083
		c-2.038,7.381-4.122,14.75-6.059,22.156c-0.728,2.778-1.098,5.65-2.065,10.789c3.133-2.786,4.518-4.02,5.904-5.25
		c13.427-11.916,26.233-24.637,40.422-35.562c22.543-17.358,47.954-27.927,77.141-24.013c47.223,6.333,81.576,30.82,101.124,74.701
		c6.782,15.225,11.902,31.075,13.622,47.853c2.85,27.797-5.002,52.551-23.621,72.845c-17.239,18.789-39.297,30.658-64.395,36.142
		c-13.318,2.91-26.687,5.819-40.178,7.662C1933.187,1000.476,1919.526,1000.984,1904.754,1002.174z M1653.851,828.873
		c1.167,10.517,7.186,18.745,12.058,27.516c1.237-11.676-2.055-21.178-12.25-27.354c4.984-10.319,12.187-13.3,20.347-8.422
		c6.339,3.789,7.487,8.611,1.94,13.562c-4.881,4.355-4.878,9.044-3.859,14.424c3.307,17.458,8.77,34.259,17.48,49.725
		c5.52,9.8,11.97,19.168,18.844,28.081c5.728,7.428,14.197,10.395,23.285,10.932c13.993-25.565,25.881-94.523,27.291-125.779
		c-1.204-1.015-2.51-2.044-3.733-3.162c-3.542-3.234-6.875-6.646-4.678-12.034c1.64-4.021,8.421-7.525,13.544-6.754
		c4.684,0.705,9.418,2.189,11.195,7.163c1.592,4.455-1.271,7.787-4.586,10.198c-4.207,3.06-5.076,7.149-5.783,11.988
		c-5.616,38.435-7.283,77.531-18.988,114.958c-0.099,0.314-0.266,0.687-0.182,0.967c0.446,1.494,0.545,3.558,1.57,4.28
		c1.024,0.722,3.287,0.605,4.489-0.067c1.641-0.92,3.064-2.539,4.108-4.162c10.667-16.576,19.93-33.844,25.692-52.818
		c1.481-4.88,2.309-9.048-1.671-13.789c-3.794-4.521-1.597-8.431,4.313-10.358c5.762-1.88,10.354,0.227,14.459,4.278
		c0.649-0.936,1.366-1.681,1.756-2.568c12.734-29.043,23.187-58.842,28.925-90.108c3.525-19.211,3.98-38.47-1.98-57.357
		c-9.763-30.936-39.864-49.82-73.389-52.67c-3.534-0.3-5.624,1.3-6.633,4.668c-0.857,2.866-1.917,5.674-2.923,8.494
		c-2.19,6.14-4.404,12.271-6.608,18.407c-0.833,0.01-1.667,0.021-2.501,0.03c-1.76-3.768-3.692-7.467-5.232-11.322
		c-1.726-4.32-2.842-8.892-4.676-13.158c-3.181-7.401-4.279-7.874-12.164-6.324c-26.125,5.135-46.413,19.054-61.797,40.644
		c-11.626,16.316-17.505,34.036-16.311,54.306c1.167,19.802,5.28,38.888,11.654,57.544
		C1648.736,818.33,1651.497,823.53,1653.851,828.873z M1688.66,1135.578c3.572-3.623,6.207-6.001,8.48-8.685
		c2.312-2.728,4.986-5.48,6.228-8.712c2.61-6.798,5.043-13.793,6.384-20.926c4.121-21.917,7.9-43.905,11.371-65.936
		c1.273-8.086,2.299-16.387-0.264-25.787c-4.111,1.853-7.966,2.939-11.057,5.112c-7.346,5.166-14.676,10.455-21.392,16.396
		c-15.961,14.121-31.871,28.262-50.218,39.305c-5.241,3.155-9.114,6.327-9.443,13.653c-0.345,7.642-7.208,10.391-13.931,6.665
		c-2.553-1.416-4.842-3.541-6.798-5.745c-2.852-3.213-3.729-7.164-1.81-11.156c1.815-3.776,5.308-4.893,9.252-4.365
		c6.783,0.905,12.263-1.572,17.412-5.782c9.266-7.576,18.869-14.74,28.112-22.343c12.997-10.688,23.227-23.821,32.305-37.875
		c1.27-1.966,1.831-4.39,2.75-6.675c-1.791-0.581-2.48-1.07-2.973-0.919c-2.219,0.682-4.466,1.367-6.551,2.37
		c-16.773,8.068-33.907,15.496-50.167,24.499c-23.276,12.889-46.664,25.836-68.598,40.818
		c-21.478,14.671-40.348,32.785-54.725,54.902c-6.96,10.707-12.276,22.203-13.533,35.098c-3.112,31.944,11.856,55.528,34.597,75.617
		c11.679-5.537,18.86-16.715,31.113-20.936c3.48,14.151-6.787,26.508-3.047,39.982c3.935,1.576,7.621,3.065,11.317,4.531
		c23.54,9.332,46.663,8.386,69.789-1.942c19.462-8.692,35.21-21.007,45.525-40.123c22.921-42.479,31.128-88.771,36.195-135.949
		c-6.078,17.425-12.009,34.892-17.6,52.466c-0.684,2.149,0.604,4.872,0.7,7.34c0.119,3.1,1.086,6.952-0.351,9.146
		c-2.297,3.507-6.905,4.21-10.841,2.511C1694.327,1141.026,1692.333,1138.586,1688.66,1135.578z M1466.154,852.999
		c-0.377,0.79-0.754,1.58-1.13,2.37c-5.604-0.425-11.208-0.836-16.811-1.278c-5.964-0.473-11.917-1.195-17.889-1.39
		c-4.194-0.137-7.041,1.403-9.066,5.995c-9.469,21.465-8.2,43.524-0.575,64.318c10.43,28.445,30.189,49.267,60.285,58.039
		c27.855,8.12,56.101,13.622,85.387,9.63c1.899-0.26,3.932,0.448,5.901,0.707c2.608,0.343,5.229,1.065,7.821,0.973
		c31.371-1.119,62.293-5.104,92.169-15.233c5.966-2.022,11.941-4.195,17.567-6.992c5.877-2.921,6.934-5.534,3.689-11.238
		c-2.531-4.452-6.308-8.547-10.382-11.702c-12.098-9.372-24.714-18.07-36.945-27.273c-15.544-11.695-27.17-26.378-33.049-45.173
		c-1.554-4.966-4.044-8.815-8.819-11.48c-1.781-0.995-3.59-4.628-3.078-6.386c0.687-2.358,3.285-4.858,5.664-5.842
		c2.741-1.133,6.138-0.68,10.31-0.995c-2.226-2.435-3.66-4.165-5.259-5.729c-15.288-14.943-32.259-27.736-49.869-39.818
		c-14.886-10.211-31.266-16.198-48.838-19.069c-30.205-4.937-56.903,9.848-75.541,40.771
		C1447.05,835.01,1456.602,844.005,1466.154,852.999z M1790.668,980.484c-0.141,0.322-0.28,0.644-0.42,0.966
		c4.168,0.542,8.322,1.401,12.505,1.569c13.646,0.547,27.3,1.031,40.954,1.197c34.881,0.424,69.746,3.473,104.417-4.861
		c17.784-4.275,35.771-7.373,52.657-14.721c14.195-6.178,27.211-14.168,37.005-26.341c14.712-18.288,18.26-39.555,14.896-62.214
		c-1.295-8.725-2.014-17.842-8.538-25.445c-10.068,1.864-19.991,3.703-29.914,5.541c-0.383-0.599-0.767-1.198-1.149-1.797
		c6.513-9.382,13.026-18.764,19.567-28.188c-3.135-4.277-5.491-7.917-8.28-11.188c-3.235-3.792-6.608-7.533-10.338-10.825
		c-27.498-24.273-70.89-33.992-107.471-11.926c-17.536,10.578-34.246,21.677-47.555,37.44c-3.857,4.569-8.591,8.397-12.468,12.953
		c-11.853,13.933-24.034,27.638-35.056,42.213c-12.24,16.188-23.355,33.228-34.925,49.922c-1.196,1.727-2.146,3.623-3.369,5.715
		c1.281,0.234,1.645,0.422,1.81,0.312c1.091-0.728,2.211-1.438,3.191-2.302c18.112-15.941,34.364-33.424,45.942-54.861
		c2.198-4.07,4.444-7.606,4.335-12.813c-0.159-7.583,6-11.395,13.104-8.538c3.51,1.41,7.015,4.042,9.291,7.053
		c4.465,5.904,2.524,12.062-4.754,13.813c-6.254,1.506-9.518,5.181-12.317,10.282c-12.491,22.761-28.611,42.473-49.291,58.342
		c-2.633,2.021-5.11,4.3-7.378,6.723c-1.447,1.546-2.377,3.577-4.518,6.921c4.659,0.312,7.812,0.994,10.843,0.643
		c13.545-1.572,27.029-3.684,40.585-5.146c21.901-2.362,43.463-6.143,64.131-14.021c3.609-1.376,7.045-3.209,10.32-4.72
		c-0.238-3.394-0.738-5.742-0.499-8.014c0.69-6.555,5.628-10.1,12.01-8.354c2.784,0.762,5.564,2.333,7.777,4.209
		c3.381,2.864,5.808,6.56,4.591,11.384c-1.171,4.64-5.188,5.595-9.1,6.704c-5.06,1.435-10.429,2.34-15.037,4.699
		c-13.702,7.014-27.782,13.093-42.844,16.118C1833.902,973.244,1812.247,976.676,1790.668,980.484z M1757.64,1016.891
		c0.483,1.889,0.574,2.554,0.82,3.155c16.078,39.358,29.075,79.407,28.17,122.691c-0.059,2.806,0.874,6.253,2.612,8.352
		c4.104,4.952,5.916,10.897,8.822,16.345c11.159,20.911,24.258,40.638,43.11,55.64c30.114,23.963,60.448,22.828,93.661,3.359
		c2.166-1.27,3.796-3.455,5.703-5.242c-3.111-11.206-10.506-20.268-12.822-33.213c12.318,5.806,22.994,10.839,33.939,15.998
		c2.849-3.159,5.111-5.543,7.237-8.043c28.286-33.269,36.343-100.761-20.399-140.545c-35.965-25.216-75.833-41.158-118.112-51.777
		c-1.281-0.322-2.626-0.397-3.944-0.569c-14.507-1.893-29.008-3.821-43.527-5.614c-1.604-0.198-3.304,0.389-6.692,0.845
		c3.334,2.485,5.013,4.016,6.935,5.125c20.729,11.969,41.453,23.948,62.279,35.747c6.941,3.933,13.835,7.724,22.508,3.633
		c4.052-1.911,7.857,1.705,7.795,6.253c-0.07,5.005-3.206,8.021-7.472,9.602c-4.029,1.493-7.52,0.901-10.249-3.397
		c-1.847-2.909-4.724-5.729-7.804-7.203c-27.255-13.036-54.657-25.763-82.56-38.835
		C1764.629,1011.518,1761.245,1014.119,1757.64,1016.891z M1620.608,852.901c-0.864,4.17-1.583,6.666-1.853,9.21
		c-0.269,2.522-0.84,5.389,0.022,7.596c5.112,13.081,11.263,25.637,23.027,34.202c13.131,9.56,26.436,18.882,39.746,28.192
		c1.964,1.374,4.371,2.113,6.574,3.146C1666.645,907.104,1644.819,879.768,1620.608,852.901z M1748.473,1035.311
		c3.355,20.125,10.438,39.033,18.666,57.568C1762.564,1073.152,1758.092,1053.392,1748.473,1035.311z"/>
	<path fill-rule="evenodd" clip-rule="evenodd" fill="#0D0D0D" opacity="0.3" d="M1913.534,1712.613c1.749,3,2.653,5.11,4.036,6.839
		c21.584,26.999,26.912,58.074,22.738,91.412c-0.989,7.896-2.537,15.808-4.75,23.445c-5.207,17.974-16.007,32.203-31.646,42.285
		c-10.331,6.66-21.189,12.631-32.279,17.931c-5.539,2.646-12.092,4.117-18.248,4.332c-14.232,0.496-27.503,4.121-40.657,9.2
		c-10.83,4.181-21.889,7.901-33.077,10.988c-13.659,3.769-26.354,0.009-38.203-7.006c-12.087-7.156-20.991-17.326-27.405-29.738
		c-1.676-3.243-3.214-6.557-5.456-11.153c-2.041,2.927-3.51,5.215-5.158,7.363c-5.254,6.848-9.99,14.215-15.98,20.352
		c-17.852,18.283-39.473,25.032-64.746,19.709c-20.686-4.356-40.363-11.263-58.647-21.957c-16.15-9.446-29.349-21.852-38.307-38.454
		c-6.115-11.334-14.628-20.554-24.543-28.653c-19.943-16.291-25.38-35.07-17.41-59.664c1.745-5.384,3.979-10.622,5.49-16.065
		c5.209-18.773,17.158-32.006,33.595-41.674c2.868-1.687,5.73-3.382,8.576-5.105c0.244-0.148,0.342-0.54,0.995-1.635
		c-7.349-2.064-14.38-4.704-21.649-5.969c-35.002-6.09-57.403-27.056-71.901-58.529c-12.481-27.097-21.134-54.976-16.999-84.971
		c3.942-28.599,17.948-51.022,44.615-64.699c8.773-4.5,17.678-9.986,24.381-17.052c20.003-21.087,44.212-28.113,72.358-25.62
		c16.428,1.454,32.07,5.587,47.388,11.391c3.592,1.36,7.271,2.491,12.569,4.292c0-6.16,0.026-10.704-0.005-15.248
		c-0.123-17.444,4.279-33.564,13.79-48.28c7.471-11.56,17.234-19.112,31.569-19.91c7.121-0.396,13.565-3.216,19.139-7.776
		c2.32-1.898,4.748-3.71,6.821-5.857c12.778-13.235,28.331-20.498,46.544-22.867c18.586-2.418,37.318-5.021,55.438,0.928
		c11.56,3.795,23.653,8.475,32.985,15.92c12.284,9.8,20.877,23.662,21.83,40.131c0.769,13.289,6.624,22.65,17.422,29.606
		c4.757,3.063,9.336,6.407,14.125,9.419c12.961,8.151,17.895,20.048,16.595,34.935c-0.229,2.621-0.504,5.238-0.898,9.313
		c4.614-0.803,8.649-1.604,12.715-2.191c11.834-1.711,23.673-4.685,35.521-4.734c30.908-0.133,48.962,14.132,57.777,39.886
		c6.677,19.505,14.72,38.538,21.754,57.927c2.711,7.471,5.023,15.229,6.281,23.057c2.872,17.877-2.84,32.837-17.149,44.234
		c-2.604,2.072-5.266,4.112-8.097,5.85c-7.716,4.735-12.685,11.303-15.616,19.969c-5.687,16.807-17.357,28.549-33.907,34.345
		c-10.894,3.815-22.538,5.503-33.869,8.044C1920.84,1711.607,1917.623,1711.956,1913.534,1712.613z M1442.289,1584.064
		c-0.623,1.921-1.002,2.547-0.992,3.166c0.029,1.658,0.055,3.348,0.38,4.965c4.648,23.083,12.953,44.729,25.919,64.443
		c6.773,10.298,16.224,17.613,27.501,22.398c6.416,2.723,12.984,5.246,19.696,7.08c26.322,7.192,52.123,7.489,78.202-2.901
		c27.589-10.993,54.18-23.852,80.396-37.636c1.094-0.575,1.972-1.563,2.562-2.041c0.168-0.988,0.328-1.34,0.262-1.642
		c-0.286-1.298-0.699-2.569-0.958-3.872c-1.989-9.999-7.629-15.22-18.158-16.706c-19.75-2.787-39.313-6.875-59.012-10.068
		c-9.703-1.573-19.506-4.847-29.35-0.228c-1.104,0.518-2.636,0.213-3.963,0.15c-6.855-0.322-13.393-5.271-14.934-11.256
		c-1.313-5.099,0.85-10.093,5.515-12.739c6.101-3.462,14.348-2.173,19.192,3.093c1.119,1.217,1.699,3.104,3.003,3.943
		c3.821,2.462,7.724,4.937,11.905,6.646c2.671,1.093,5.896,0.812,8.867,1.193c24.419,3.137,48.829,6.344,73.263,9.357
		c3.31,0.408,7.196,2.072,10.828-2.93c-5.052-4.748-9.559-10.151-15.133-14.014c-19.974-13.837-40.339-27.105-60.476-40.709
		c-3.238-2.188-6.292-3.242-10.233-2.145c-6.598,1.838-12.541-0.347-17.771-4.235c-3.697-2.75-6.054-7.04-4.287-11.357
		c1.366-3.337,4.395-6.884,7.599-8.392c6.542-3.08,17.361,1.636,20.002,8.493c1.686,4.378,4.263,7.445,8.104,9.648
		c24.247,13.907,48.506,27.794,72.826,41.573c1.641,0.929,3.813,0.917,6.785,1.574c-19.59-35.452-40.798-68.104-63.563-99.73
		c-3.38-4.695-8.181-9.419-13.382-11.57c-22.357-9.248-45.545-14.743-70.082-11.748c-13.04,1.593-24.528,6.611-33.341,16.277
		c-10.485,11.503-22.55,20.451-36.429,27.477c-15.417,7.804-24.316,21.368-29.476,37.462c-2.719,8.479-1.224,16.18,4.719,23.251
		c8.783,10.451,17.104,21.292,25.556,32.019c1.234,1.567,2.105,3.42,3.82,6.261
		C1462.816,1603.405,1453.833,1592.67,1442.289,1584.064z M1735.85,1575.376c5.409-26.848,10.532-53.265,16.156-79.575
		c1.622-7.583,1.734-14.249-3.127-20.8c-4.348-5.857-2.946-12.081,0.932-17.676c5.483-7.912,16.011-7.143,20.233,1.567
		c3.102,6.396,3.476,13.151-1.748,18.639c-4.673,4.907-6.393,10.534-7.277,17.017c-2.025,14.845-4.924,29.573-6.812,44.433
		c-1.295,10.197-1.582,20.529-2.14,30.812c-0.381,7.025,3.818,11.726,8.633,16.09c2.953,2.678,6.044,2.682,9.067,0.599
		c2.17-1.495,4.038-3.461,5.914-5.343c14.821-14.866,29.484-29.893,44.447-44.614c16.635-16.368,33.587-32.085,55.748-41.41
		c16.251-6.838,18.215-29.498,4.28-40.476c-6.257-4.929-12.999-9.36-19.935-13.286c-14.829-8.394-22.689-20.752-24.255-37.752
		c-1.969-21.361-14.302-34.442-34.479-40.562c-17.24-5.229-34.815-4.644-52.504-3.219c-18.006,1.45-33.497,7.941-46.191,20.987
		c-2.526,2.596-5.542,4.875-8.69,6.676c-7.09,4.055-11.542,9.911-13.448,17.774c-2.07,8.541-4.097,17.093-6.479,27.046
		c-6.299-11.794-3.871-23.688-5.236-36.563c-4.571,1.508-8.984,1.759-11.552,4.064c-5.104,4.586-10.312,9.706-13.489,15.665
		c-9.198,17.244-11.599,36.021-9.036,55.28c0.59,4.434,2.708,8.914,5.042,12.825c12.969,21.735,26.076,43.391,39.438,64.886
		c6.149,9.891,13.021,19.33,19.501,29.018c3.049,4.556,6.754,7.01,13.386,4.476c-0.475-5.604-0.362-11.286-1.517-16.697
		c-5.068-23.767-10.553-47.444-15.771-71.179c-1.384-6.292-3.473-11.982-8.215-16.728c-4.347-4.35-5.068-9.939-3.079-15.799
		c1.884-5.55,6.61-9.626,11.448-9.862c4.737-0.232,9.847,3.557,11.946,9.146c1.839,4.899,2.133,9.943-1.128,14.326
		c-4.479,6.02-4.127,12.328-2.165,18.997c4.415,15.008,8.733,30.043,13.114,45.062c2.329,7.985,4.479,16.034,7.135,23.912
		C1726.035,1569.176,1729.073,1574.639,1735.85,1575.376z M1530.07,1786.782c-0.95,2.788-1.789,5.62-2.87,8.356
		c-5.908,14.957-3.944,28.649,6.205,41.228c2.494,3.093,4.684,6.502,6.563,10.007c8.818,16.446,21.721,28.865,38.549,36.422
		c14.2,6.376,28.893,12.021,43.864,16.217c17.479,4.899,34.353,2.211,49.046-9.546c16.276-13.023,24.678-31.065,31.828-49.889
		c0.567-1.496,0.318-3.294,0.5-4.946c2.988-27.134,6.105-54.255,8.944-81.404c2.527-24.168,4.797-48.363,7.063-72.557
		c0.449-4.791,0.729-9.762-4.956-13.501c-2.456,4.915-5.029,9.188-6.806,13.77c-9.023,23.276-17.731,46.677-26.797,69.937
		c-2.824,7.247-5.064,14.273-3.563,22.281c1.395,7.439-2.35,12.98-8.713,16.498c-9.004,4.977-18.225-0.759-17.713-10.924
		c0.321-6.381,2.591-11.891,9.085-14.242c6.689-2.422,9.712-7.498,11.735-13.843c8.797-27.589,17.767-55.122,26.586-82.704
		c0.64-2.002,0.571-4.23,0.822-6.275c-7.142-2.278-10.647,1.943-14.339,5.817c-17.465,18.328-34.86,36.724-52.471,54.91
		c-5.072,5.237-8.776,10.605-8.407,18.37c0.365,7.696-4.313,12.285-11.098,14.9c-7.034,2.713-13.584-0.889-15.198-8.202
		c-1.802-8.166,2.526-15.891,10.97-18.688c5.158-1.709,9.777-3.773,13.426-8.082c14.424-17.036,29.045-33.905,43.553-50.87
		c1.07-1.251,1.821-2.773,3.377-5.188c-2.463,0.685-3.441,0.837-4.321,1.219c-28.688,12.468-57.375,24.941-86.047,37.45
		c-13.725,5.987-27.847,11.24-41.037,18.242c-27.821,14.771-41.945,38.092-40.432,70.063c0.468,9.891,4.796,17.382,14.655,22.366
		C1515.176,1802.443,1519.957,1792.827,1530.07,1786.782z M1792.364,1673.695c1.932,3.465,2.471,4.922,3.41,6.042
		c7.698,9.179,15.028,18.723,23.343,27.31c8.395,8.669,15.085,19.325,28.318,22.691c6.544,1.666,9.313,9.781,8.178,16.578
		c-1.025,6.141-5.965,10.168-11.916,9.716c-7.471-0.567-14.443-6.659-14.195-14.203c0.308-9.393-4.351-15.488-10.347-21.671
		c-18.524-19.1-36.838-38.407-55.028-57.826c-3.579-3.821-6.299-4.392-9.733,0.018c0.318,1.244,0.597,2.519,0.971,3.764
		c7.847,26.106,15.545,52.26,23.651,78.285c2.657,8.53,5.646,16.95,15.612,20.565c5.966,2.164,7.47,8.056,7.3,14.126
		c-0.266,9.488-7.888,14.285-16.554,10.424c-7.125-3.175-10.751-8.793-9.604-16.732c0.942-6.522,0.119-12.521-2.213-18.56
		c-5.148-13.333-10.12-26.734-15.188-40.099c-4.482-11.819-9.034-23.612-13.482-35.444c-2-5.319-5.192-7.32-10.722-4.491
		c-0.27,1.494-0.592,2.772-0.719,4.069c-3.175,32.474-6.752,64.916-9.335,97.438c-1.633,20.552-2.254,41.218-2.445,61.841
		c-0.163,17.535,5.601,33.408,17.146,46.838s25.973,18.226,43.058,12.886c8.229-2.571,16.277-5.837,24.183-9.302
		c12.938-5.671,26.307-9.557,40.431-10.073c8.934-0.327,16.97-2.944,24.622-7.249c4.932-2.773,9.783-5.71,14.828-8.261
		c18.59-9.401,28.562-24.609,33.143-44.811c7.59-33.463,4.901-64.737-15.159-93.551c-4.198-6.029-9.27-10.427-16.349-12.29
		c-27.806-7.322-53.07-21.204-79.941-30.942C1803.108,1679.144,1798.867,1676.743,1792.364,1673.695z M1773.746,1601.611
		c2.295,6.667,6.439,8.43,12.578,7.709c21.15-2.481,42.339-4.638,63.504-6.994c11.502-1.281,22.967-1.729,30.353-13.56
		c3.286-5.263,13.477-5.066,18.409-1.755c4.485,3.012,6.233,7.934,4.657,13.111c-1.765,5.797-8.878,10.994-15.267,11.008
		c-1.639,0.004-3.547,0.032-4.874-0.737c-7.374-4.278-14.74-2.413-22.257-0.598c-5.487,1.325-11.091,2.179-16.656,3.166
		c-18.337,3.253-36.689,6.412-55.014,9.734c-6.452,1.17-11.768,4.087-15.263,12.707c2.359,1.675,5.316,3.353,7.771,5.584
		c13.457,12.235,28.804,21.4,45.431,28.584c5.79,2.502,11.639,4.948,17.163,7.966c22.822,12.465,45.975,23.063,73.025,15.535
		c0.315-0.088,0.666-0.039,0.994-0.09c13.495-2.075,26.998-4.058,38.959-11.439c10.264-6.335,15.938-15.222,16.888-27.455
		c-7.552-2.504-15.946-0.644-21.396-8.205c4.859-0.894,8.748-1.903,12.698-2.278c11.609-1.104,21.825-5.603,31.22-12.246
		c15.123-10.695,18.905-20.112,13.559-37.771c-5.009-16.547-10.933-32.825-16.727-49.124c-3.336-9.384-6.992-18.669-10.903-27.828
		c-5.192-12.155-14.68-18.657-27.851-19.479c-6.969-0.435-14.016-1.031-20.945-0.493c-53.751,4.172-94.41,32.469-129.372,71.075
		c11.551-6.153,22.684-13.038,33.943-19.708c5.562-3.295,10.388-6.988,12.931-13.303c2.357-5.852,7.592-8.315,13.471-8.951
		c8.105-0.877,15.305,5.692,14.504,12.785c-0.842,7.452-9.895,15.324-17.041,13.359c-8.872-2.439-15.42,0.802-22.225,5.511
		c-17.795,12.313-35.73,24.426-53.674,36.525C1782.259,1596.71,1777.924,1599.087,1773.746,1601.611z"/>
	<path fill-rule="evenodd" clip-rule="evenodd" fill="#0D0D0D" opacity="0.3" d="M458.927,190.915c2.484-0.773,4.757-1.285,6.87-2.173
		c12.243-5.142,25.002-6.056,38.151-5.867c14.269,0.205,28.553-0.846,42.832-1.286c8.986-0.277,17.987-0.832,26.96-0.551
		c11.86,0.371,21.793,5.637,30.066,13.944c5.852,5.876,8.69,13.138,9.641,21.415c0.516,4.49,1.155,9.769,3.774,13.081
		c14.063,17.784,13.978,37.425,8.943,57.943c-4.968,20.247-14.911,37.93-29.878,52.225c-12.723,12.152-26.652,23.045-40.131,34.397
		c-3.288,2.771-6.896,5.161-11.288,8.417c2.441,2.065,4.186,3.912,6.264,5.237c12.744,8.13,23.807,18.14,33.806,29.431
		c6.307,7.123,10.718,15.141,13.239,24.322c5.546,20.195,7.419,40.583,3.507,61.286c-2.531,13.394-8.56,25.106-17.68,35.217
		c-5.453,6.045-11.84,11.035-19.748,13.046c-8.403,2.138-13.742,7.35-18.467,14.178c-12.809,18.516-29.915,30.987-52.205,35.854
		c-28.217,6.161-53.577,0.228-75.734-18.259c-21.092-17.598-39.834-37.368-54.099-61.063c-1.372-2.279-2.845-4.503-4.373-6.68
		c-0.319-0.456-1.092-0.594-2.304-1.205c-1.752,2.555-3.536,5.224-5.389,7.844c-11.905,16.848-23.594,33.857-35.872,50.43
		c-4.115,5.555-9.574,10.175-14.718,14.896c-14.558,13.366-32.104,19.119-51.474,17.33c-14.841-1.371-29.591-4.33-44.195-7.454
		c-11.566-2.475-20.331-9.639-26.484-19.793c-2.761-4.556-5.512-9.13-7.99-13.841c-3.587-6.818-8.963-10.474-16.758-10.567
		c-2.991-0.036-5.975-0.531-8.969-0.659c-27.601-1.174-48.542-25.53-51.72-50.009c-2.864-22.06,2.945-41.573,15.553-59.347
		c4.617-6.509,9.951-12.51,14.927-18.766c2.032-2.555,3.982-5.172,6.531-8.492c-3.36-1.121-5.791-2.041-8.282-2.745
		c-27.865-7.877-50.627-23.022-67.721-46.652c-6.821-9.431-14.531-18.213-21.696-27.399c-14.19-18.195-15.839-37.498-4.854-57.846
		c1.897-3.516,3.547-7.167,5.508-10.644c5.619-9.955,7.623-20.063,4.658-31.607c-3.184-12.395,0.621-23.708,9.297-33.229
		c0.673-0.738,1.291-1.551,2.063-2.173c30.492-24.577,61.921-47.646,101.714-54.655c28.177-4.964,54.963,0.304,80.145,13.752
		c6.413,3.425,12.694,7.096,20.65,11.559c0.112-4.206,0.442-7.229,0.235-10.215c-2.478-35.731,3.001-69.765,21.684-100.904
		c3.586-5.978,7.603-11.772,12.02-17.161c12.561-15.322,28.564-22.848,48.777-22.798c21.921,0.055,43.863-1.171,65.762-2.434
		c12.578-0.725,22.733,3.764,31.588,12.024c9.163,8.549,15.723,19,20.538,30.442c15.812,37.563,17.616,76.167,8.006,115.529
		c-0.866,3.548-1.675,7.109-2.471,10.674C458.079,189.169,458.351,189.496,458.927,190.915z M95.357,210.98
		c-4.363,1.548-8.982,2.612-13.039,4.744c-8.493,4.465-16.76,9.377-24.975,14.345c-3.499,2.116-4.522,5.467-3.34,9.546
		c3.8,13.114-0.027,24.972-6.233,36.394c-3.337,6.143-6.757,12.241-10.054,18.405c-5.687,10.636-5.031,21.176,0.978,31.401
		c2.693,4.584,6.104,8.746,8.794,13.331c4.903,8.357,11.977,12.828,21.58,14.337c10.604,1.665,21.063,4.236,31.585,6.412
		c-0.016,0.778-0.031,1.556-0.047,2.334c-9.532,0.437-19.064,0.873-28.597,1.31c2.482,5.044,5.377,8.166,8.594,10.911
		c14.911,12.721,31.946,21.341,50.71,27.033c8.897,2.7,15.804,1.437,22.969-4.589c21.597-18.159,45.948-31.732,72.377-41.608
		c1.583-0.592,2.938-1.795,4.4-2.714c-5.456-1.53-10.438-1.541-15.42-1.517c-0.655,0.004-1.486-0.029-1.937,0.33
		c-2.576,2.059-4.889,4.49-7.619,6.301c-4.056,2.689-8.264,2.293-11.985-0.832c-3.61-3.031-5.285-6.773-3.42-11.53
		c1.801-4.595,5.1-6.962,10.037-6.481c2.271,0.221,4.458,1.189,6.721,1.617c4.204,0.795,8.442,2.08,12.655,2.042
		c20.32-0.183,40.638-0.715,60.953-1.205c1.641-0.04,3.267-0.703,6.684-1.483c-4.616-1.967-7.315-3.231-10.095-4.283
		c-23.643-8.948-47.333-17.771-70.931-26.836c-6.569-2.523-12.409-5.262-19.448-0.113c-4.219,3.086-10.316,0.174-12.85-4.272
		c-2.514-4.412-1.368-10.393,2.597-13.556c4.087-3.259,9.25-2.386,14.538,1.575c4.148,3.106,8.541,6.438,13.366,7.997
		c27.211,8.79,54.579,17.091,81.914,25.492c1.932,0.594,4.029,0.65,8.322,1.302c-2.972-2.651-4.074-3.846-5.373-4.762
		c-17.418-12.287-34.863-24.535-52.302-36.793c-3.953-2.779-8.075-3.866-13.12-3.31c-5.826,0.643-9.676-2.947-10.602-8.274
		c-0.97-5.575,2.255-10.824,7.633-12.428c5.062-1.509,9.797,0.34,11.996,6.072c2.368,6.17,6.845,9.836,12.233,12.527
		c15.768,7.872,31.673,15.472,47.572,23.075c1.931,0.924,4.159,1.224,8.211,2.366c-2.91-6.052-4.878-10.493-7.142-14.778
		c-4.821-9.126-9.554-18.313-14.757-27.221c-11.838-20.267-21.798-41.167-24.572-64.876c-0.736-6.297-4.007-11.305-10.044-13.955
		c-13.364-5.869-26.485-12.475-40.249-17.197c-12.279-4.213-25.446-5.748-38.481-3.935c-34.961,4.863-66.502,18.431-95.17,38.801
		c-3.603,2.56-6.516,6.09-9.749,9.17C73.135,210.988,83.93,207.143,95.357,210.98z M358.973,378.61
		c-0.451,0.216-0.902,0.432-1.354,0.647c6.548,21.571,12.873,43.215,19.883,64.634c1.053,3.218,5.322,5.374,8.08,8.046
		c2.051,1.985,4.846,3.665,5.918,6.095c1.744,3.952,0.457,7.919-3.003,10.753c-3.41,2.794-7.337,3.101-11.274,1.353
		c-3.643-1.617-5.438-4.486-5.65-8.644c-0.268-5.224-0.048-10.797-1.813-15.561c-7.053-19.039-14.782-37.827-22.305-56.69
		c-0.58-1.456-1.497-2.779-2.258-4.163c-1.021,2.484-0.986,4.646-0.58,6.736c2.985,15.359,5.7,30.784,9.178,46.033
		c3.474,15.231,6.619,30.682,11.859,45.339c15.123,42.294,45.504,72.136,82.012,96.408c4.871,3.239,10.889,4.921,16.565,6.725
		c3.874,1.23,8.115,1.807,12.457-0.294c-3.172-6.406-9.945-9.766-10.779-18.361c6.666,4.564,12.254,8.1,17.518,12.065
		c7.287,5.489,14.551,5.511,22.327,1.154c12.166-6.815,22.433-15.474,29.006-28.07c4.006-7.676,9.723-13.619,18.495-15.578
		c16.511-3.687,24.8-15.534,30.699-30.046c1.646-4.047,1.555-7.598-0.526-11.4c-4.474-8.179-8.785-16.447-13.095-24.714
		c-0.941-1.805-1.598-3.759-2.386-5.645c0.486-0.357,0.972-0.715,1.458-1.073c5.806,5.019,11.612,10.036,18.078,15.624
		c0-5.649,0.326-9.987-0.058-14.262c-1.519-16.896-5.187-33.068-18.412-45.123c-7.624-6.951-15.467-13.708-23.63-20.011
		c-10.707-8.269-22.977-13.279-36.321-15.699c-11.128-2.019-22.349-3.726-33.296-6.489c-17.735-4.478-35.356-9.358-53.708-10.604
		c-11.439-0.776-22.889-1.408-34.333-2.105c-0.618,0.989-1.236,1.979-1.854,2.969c2.202,1.331,4.611,2.412,6.572,4.033
		c13.612,11.252,27.178,22.562,40.649,33.98c3.415,2.895,6.413,4.677,11.521,3.822c6.418-1.073,11.265,4.331,10.709,10.117
		c-0.482,5.022-4.669,9.352-9.665,9.994c-4.925,0.633-9.782-1.63-10.666-6.832c-1.344-7.906-6.698-11.854-12.368-16.021
		c-14.497-10.656-28.914-21.421-43.404-32.086c-2.251-1.657-4.719-3.02-7.087-4.518c-0.449,2.373,0.096,3.827,0.9,5.118
		c14.983,24.022,30.098,47.964,44.908,72.092c2.471,4.025,5.5,4.815,9.771,5.259c6.126,0.634,9.941,5.525,9.609,10.791
		c-0.329,5.205-5.401,10.085-10.607,10.204c-5.674,0.131-10.75-4.405-10.541-10.859c0.167-5.157-1.794-8.815-4.583-12.674
		c-15.811-21.87-31.483-43.841-47.24-65.751C362.679,383.003,360.771,380.846,358.973,378.61z M394.001,36.982
		c-9.478,0.775-18.102,2.524-26.563,1.932c-12.976-0.908-21.571,4.973-28.657,14.711c-7.364,10.121-11.69,21.608-15.309,33.439
		c-0.759,2.481-1.799,4.876-2.71,7.311c-3.164-19.6,2.68-37.171,10.822-55.761c-4.599,0.806-7.839,1.077-10.898,1.966
		c-8.915,2.591-16.163,7.863-21.916,15.021c-12.883,16.032-22.364,33.815-27.358,53.901c-5.139,20.666-4.329,41.641-3.374,62.596
		c0.544,11.932,0.929,23.986,2.962,35.711c4.77,27.499,21.792,49.611,33.798,74.028c0.423-2.074,0.336-3.977-0.174-5.76
		c-2.65-9.28-5.49-18.506-8.101-27.798c-1.641-5.844-3.606-11.343-8.43-15.534c-1.606-1.396-2.885-3.806-3.199-5.918
		c-0.703-4.719,1.391-8.561,5.682-10.699c4.254-2.12,8.447-1.519,12.071,1.667c3.357,2.951,5.064,7.135,2.584,10.721
		c-4.415,6.385-1.879,11.923,0.304,17.892c6.057,16.565,11.953,33.188,17.955,49.773c0.968,2.673,2.154,5.266,4.114,10.014
		c0.772-4.024,1.383-5.852,1.438-7.695c0.864-28.642,1.637-57.285,2.48-85.927c0.153-5.181-0.733-9.929-4.463-13.842
		c-2.712-2.845-4.091-6.071-2.363-9.996c1.896-4.306,5.066-7.072,9.846-7.339c4.416-0.247,7.691,2.028,9.759,5.79
		c2.137,3.889,1.958,8.104-1.21,11.094c-3.533,3.334-4.363,6.97-4.264,11.558c0.651,30.297,1.086,60.599,1.652,90.898
		c0.053,2.858,0.53,5.709,0.811,8.563c2.229-2.174,3.258-4.44,3.934-6.808c5.564-19.516,11.037-39.057,16.6-58.573
		c1.464-5.137,2.687-9.835,0.149-15.402c-2.668-5.852-0.027-10.938,5.076-13.445c4.521-2.221,10.313-0.622,13.239,3.656
		c3.159,4.619,2.185,9.517-2.203,14.178c-2.426,2.578-5.291,5.502-6.085,8.731c-4.993,20.316-9.46,40.762-14.101,61.165
		c3.205-1.837,5.38-4.191,6.988-6.883c14.76-24.698,33.541-46.407,51.208-68.935c4.095-5.221,8.641-10.213,13.616-14.585
		c6.016-5.285,9.641-11.688,12.044-19.144c10.715-33.251,11.267-66.71,2.537-100.454c-3.798-14.681-9.706-28.372-18.931-40.432
		c-3.265-4.268-6.553-9.067-13.27-10.234c-0.356,15.099,2.732,29.752-2.891,44.845C403.919,69.6,399.004,53.438,394.001,36.982z
		 M330.298,392.949c-0.671,0.101-1.343,0.201-2.014,0.303c-6.838,23.269-13.843,46.491-20.333,69.856
		c-0.989,3.562,0.616,7.785,0.628,11.704c0.008,2.482-0.022,5.396-1.244,7.367c-3.041,4.906-9.523,5.584-13.989,2.018
		c-4.548-3.632-5.194-9.564-0.347-13.814c4.927-4.317,6.673-9.631,8.106-15.529c4.4-18.106,8.985-36.167,13.511-54.242
		c0.912-3.643,2.273-7.264,0.644-12.444c-3.004,4.021-5.22,6.826-7.267,9.751c-13.56,19.372-27.011,38.82-40.655,58.132
		c-4.889,6.92-9.102,13.706-7.961,22.894c0.633,5.096-3.194,8.696-8.194,9.657c-4.965,0.954-9.973-1.944-11.945-6.914
		c-1.814-4.57-0.291-9.415,4.079-12.12c1.668-1.032,3.63-2.02,5.525-2.167c3.872-0.303,5.678-2.63,7.513-5.633
		c14.407-23.576,28.986-47.047,43.398-70.62c2.131-3.484,3.665-7.334,5.476-11.015c-3.297,0.365-5.175,1.592-6.842,3.059
		c-14.503,12.76-28.926,25.61-43.466,38.327c-5.039,4.407-9.831,8.489-11.054,15.92c-0.917,5.574-6.453,8.245-11.406,7.241
		c-5.011-1.016-8.839-5.667-8.802-10.695c0.037-5.228,3.41-9.991,8.979-10.153c6.43-0.188,10.415-3.535,14.564-7.514
		c15.87-15.215,31.846-30.32,47.745-45.505c2.307-2.202,4.413-4.614,6.538-6.852c-0.807-0.949-0.981-1.359-1.246-1.429
		c-0.938-0.247-1.899-0.492-2.861-0.537c-21.559-1.011-42.533,2.522-62.457,10.371c-40.58,15.986-73.234,43.077-101.717,75.481
		c-10.082,11.471-16.403,25.072-18.835,40.221c-1.607,10.016-1.05,19.788,5.943,29.019c5.941-7.97,9.873-16.939,19.464-21.785
		c-2.852,8.493-5.811,15.876-7.778,23.514c-2.833,10.997-0.309,14.403,11.083,16.23c4.929,0.791,9.915,1.251,14.887,1.743
		c10.59,1.048,18.918,6.154,25.206,14.481c3.398,4.5,5.686,9.882,9.313,14.154c4.005,4.718,8.451,9.483,13.672,12.62
		c4.684,2.813,10.758,3.219,16.076,5.091c8.531,3.004,15.496,0.67,21.969-5.175c8.114-7.326,16.508-14.342,25.851-22.416
		c-2.339,12.597-11.249,20.472-16.157,30.901c9.647,2.306,18.162,0.458,25.461-4.087c7.825-4.872,15.179-10.812,21.795-17.254
		c17.542-17.081,30.56-37.7,44.109-57.907c4.248-6.336,5.146-12.197,3.518-19.652c-5.61-25.667-10.523-51.488-15.616-77.268
		C332.031,404.536,331.244,398.727,330.298,392.949z M377.216,340.461c2.372,0.353,3.324,0.668,4.251,0.606
		c22.58-1.479,45.179-2.742,67.718-4.7c5.414-0.471,10.809-2.863,15.884-5.114c6.033-2.675,10.021-2.633,13.515,1.372
		c3.032,3.475,3.329,8.356,0.731,11.984c-3.032,4.233-8.372,6.013-13.238,2.921c-4.716-2.996-9.336-3.004-14.313-2.435
		c-13.51,1.546-27.012,3.151-40.518,4.733c5.059,1.722,10.25,2.439,15.448,3.095c9.235,1.164,18.642,1.552,27.682,3.58
		c22.04,4.944,43.966,10.437,65.817,16.166c6.18,1.621,11.375,1.82,16.7-2.227c10.067-7.649,20.826-14.438,30.505-22.532
		c7.88-6.59,14.706-14.466,21.754-22.001c1.444-1.544,2.588-4.189,2.388-6.178c-0.146-1.456-2.719-2.668-4.4-4.157
		c4.452-4.721,8.706-8.938,12.61-13.458c3.611-4.181,8.885-7.77,7.372-14.681c-4.594,0.106-7.084,5.896-12.172,2.706
		c5.038-4.763,10.184-9.012,14.523-13.966c2.487-2.842,4.99-6.757,5.183-10.314c0.545-10.064-0.659-20.045-7.862-28.101
		c-4.428-4.952-6.291-10.725-6.578-17.326c-0.558-12.838-5.727-19.377-17.901-23.25c-10.751-3.42-21.719-2.672-32.673-1.431
		c-14.205,1.61-28.276,3.6-42.749,1.694c-8.08-1.064-16.685-0.417-24.746,1.093c-21.587,4.045-37.798,17.418-52.615,32.609
		c-18.671,19.141-34.703,40.4-49.476,62.644c-2.51,3.78-4.149,7.518-1.244,12.521c2.33-1.244,4.809-2.185,6.844-3.715
		c14.641-11.01,29.134-22.216,43.818-33.166c3.011-2.246,3.84-4.893,4.335-8.398c0.925-6.552,5.073-10.124,10.375-9.864
		c4.807,0.235,9.093,4.591,9.659,9.816c0.67,6.177-1.9,9.185-8.624,11.231c-4.039,1.229-8.395,2.544-11.64,5.066
		c-15.776,12.261-31.28,24.877-46.747,37.529c-3.247,2.656-5.934,5.998-10.199,10.381c3.671-0.438,5.345-0.378,6.847-0.855
		c26.271-8.357,52.608-16.526,78.688-25.445c4.219-1.442,7.603-5.998,10.786-9.628c3.939-4.492,9.22-6.226,14.043-3.71
		c4.405,2.299,6.504,7.974,4.776,12.914c-1.856,5.307-7.367,8.732-12.805,6.232c-7.373-3.39-13.47-1.124-20.052,1.582
		c-20.605,8.474-41.318,16.686-61.93,25.146C390.68,334.023,384.568,337.087,377.216,340.461z"/>
	<path fill-rule="evenodd" clip-rule="evenodd" fill="#0D0D0D" opacity="0.3" d="M882.663,331.733c-3.159-0.235-6.313-0.584-9.478-0.688
		c-21.65-0.705-43.313-1.128-64.951-2.101c-17.26-0.775-33.524-5.247-47.786-15.471c-19.104-13.696-28.653-31.518-25.688-55.764
		c2.351-19.218,4.473-38.417,11.004-56.732c11.856-33.252,31.008-61.26,61.581-79.892c15.6-9.507,32.164-17.412,51.13-18.379
		c14.334-0.731,27.825,1.745,40.514,8.5c3.427,1.824,6.915,3.534,11.745,5.994c-0.278-4.972-0.442-8.518-0.681-12.058
		c-1.069-15.814,0.644-31.251,5.99-46.245c7.966-22.336,23.389-36.674,46.047-43.46c29.492-8.833,59.354-8.825,88.854-1.482
		c20.253,5.042,39.874,12.666,59.681,19.422c4.685,1.598,9.05,4.209,13.439,6.581c23.825,12.871,35.962,32.691,36.141,59.97
		c0.108,16.538-2.246,32.464-8.447,47.867c-3.685,9.151-6.712,18.566-8.582,28.961c8.787-5.19,17.804-10.031,26.313-15.643
		c18.226-12.019,38.548-15.849,59.839-16.168c8.221-0.124,15.979,2.299,22.569,7.016c11.677,8.359,22.009,18.069,30.031,30.295
		c7.716,11.759,15.461,23.417,18.731,37.266c6.345,26.868,13.141,53.663,18.349,80.757c7.633,39.704-15.169,70.703-56.344,78.691
		c-16.884,3.276-33.802,2.091-52.118,1.03c1.813,2.312,2.87,4.046,4.289,5.402c6.743,6.446,13.87,12.514,20.342,19.217
		c27.701,28.686,30.142,64.862,6.785,97.209c-7.68,10.636-16.801,19.841-27.76,27.086c-18.063,11.941-36.132,23.878-54.394,35.51
		c-6.154,3.919-12.793,7.135-19.398,10.276c-18.22,8.665-36.294,7.721-53.53-2.414c-27.248-16.022-49.785-36.773-63.499-65.937
		c-0.941-2.003-2.238-3.839-4.119-7.018c-1.943,3.99-3.495,6.743-4.667,9.649c-13.419,33.284-38.302,50.736-73.752,54.198
		c-18.161,1.773-35.907,0.036-53.474-4.411c-9.66-2.445-17.893-7.331-23.771-15.525c-8.891-12.391-20.233-22.01-32.97-30.188
		c-3.91-2.511-7.701-5.284-11.217-8.319c-6.937-5.99-12.863-13.243-14.925-22.077c-6.105-26.16-8.714-52.768-1.537-79.055
		c6.11-22.381,22.232-37.649,41.04-49.837c9.15-5.931,19.459-10.082,29.272-14.979c3.191-1.592,6.476-2.996,9.718-4.485
		C882.874,333.447,882.769,332.59,882.663,331.733z M1041.655,280.344c18.862-20.279,37.548-40.178,55.901-60.377
		c1.918-2.111,2.203-5.952,2.672-9.076c0.707-4.724,2.65-9.056,7.465-9.348c5.791-0.351,8.028-4.082,10.542-7.928
		c18.857-28.843,26.53-60.793,25.666-94.915c-0.401-15.851-7.606-28.833-19.361-39.189c-16.466-14.506-36.447-21.65-57.404-26.517
		c-2.078-0.482-4.366-0.064-6.678-0.064c-2.616,14.777-2.481,29.178-7.972,42.531c-3.535-15.242-0.23-31.114-4.999-46.336
		c-23.047-3.433-45.501-5.719-68.142-2.126c-10.059,1.596-11.839,3.657-13.146,14.148c-0.329,2.64-0.226,5.338-0.631,7.961
		c-0.366,2.375-1.155,4.686-1.758,7.025c-0.571-0.012-1.143-0.024-1.713-0.036c-1.726-5.58-3.451-11.16-5.537-17.905
		c-2.938,2.355-5.405,3.916-7.357,5.966c-11.394,11.976-18.085,26.15-19.768,42.682c-3.865,37.957,8.602,72.208,23.879,105.829
		c0.232,0.513,0.943,0.809,1.47,1.237c0.786-0.625,1.584-1.224,2.343-1.869c4.056-3.445,8.355-3.887,12.83-0.919
		c4.218,2.797,5.069,6.796,3.654,11.4c-1.62,5.27,0.277,9.741,2.779,14.228c8.92,15.996,17.713,32.063,26.628,48.062
		c0.943,1.693,2.373,3.114,3.577,4.661c-2.57-28.729-6.335-56.752-9.964-84.793c-0.831-6.417-2.005-12.332-7.748-16.588
		c-3.671-2.721-3.788-6.762-1.563-10.799c2.903-5.271,8.431-7.21,13.521-4.661c5.17,2.589,7.885,8.728,4.383,13.394
		c-3.566,4.751-2.975,8.942-2.041,13.933c3.124,16.687,5.931,33.434,8.962,50.139c2.586,14.26,5.314,28.494,7.979,42.739
		c1.819-2.91,2.628-5.767,2.972-8.678c2.305-19.518,4.458-39.053,6.784-58.567c0.561-4.702,0.565-8.865-2.236-13.262
		c-3.431-5.385-1.73-10.896,2.992-13.904c3.97-2.529,9.534-1.797,12.799,1.685c3.837,4.09,4.274,8.566,0.097,13.35
		c-3.345,3.83-4.534,8.012-4.824,12.742c-1.348,21.949-2.545,43.908-4.1,65.842C1034.248,277.12,1036.152,279.514,1041.655,280.344z
		 M1272.912,196.746c-7.359-12.943-17.173-22.302-28.394-30.221c-13.521-9.542-28.489-11.625-43.629-5.253
		c-18.999,7.997-37.638,16.896-56.158,25.964c-11.063,5.417-19.446,13.896-24.065,25.662c-0.72,1.834-1.63,3.689-2.85,5.218
		c-11.435,14.334-23.342,28.178-37.583,39.942c-7.939,6.558-15.029,14.145-22.502,21.268c4.795-0.019,8.488-1.351,11.966-3.11
		c18.704-9.462,37.32-19.098,56.039-28.529c7.226-3.641,14.018-7.192,16.847-15.856c1.586-4.858,7.892-6.401,12.758-4.473
		c4.229,1.676,6.954,7.009,5.875,11.496c-1.188,4.936-6.4,9.323-11.089,7.693c-7.042-2.448-12.146,0.315-17.655,3.723
		c-21.237,13.137-42.575,26.111-63.856,39.175c-2.176,1.336-4.225,2.877-6.332,4.322c2.641,0.996,4.84,1.008,6.929,0.536
		c13.294-3.006,26.636-5.845,39.821-9.277c11.741-3.057,24.42-3.493,34.15-12.69c1.771-1.673,7.552-1.215,9.93,0.461
		c2.375,1.675,3.962,6.163,3.823,9.327c-0.232,5.303-6.126,8.151-12.275,6.997c-3.175-0.596-6.665-2.232-9.502-1.479
		c-20.888,5.545-41.625,11.65-62.46,17.396c-4.66,1.285-6.113,4.551-4.705,8.245c1.179,3.091,3.735,6.217,6.525,8.029
		c9.486,6.161,19.278,11.866,29.099,17.492c3.666,2.101,7.598,3.952,11.636,5.152c26.193,7.791,52.934,13.173,80.023,16.513
		c19.825,2.444,39.713,3.838,59.743,0.889c29.788-4.384,46.681-24.482,44.856-54.378c-0.183-2.989-0.529-5.97-0.838-8.951
		c-1.129-10.922-1.678-21.947-3.556-32.74c-2.675-15.37-6.152-30.61-9.693-45.811c-0.861-3.694-3.31-7.018-5.042-10.541
		c-14.138,0.799-27.483,1.553-40.829,2.308C1248.979,201.458,1262.524,204.307,1272.912,196.746z M1233.937,472.16
		c5.674-14.789,5.221-27.824-1.593-39.971c-4.844-8.636-10.754-16.828-17.171-24.385c-7.745-9.122-16.263-17.647-24.989-25.853
		c-3.732-3.51-8.532-6.508-13.385-8.074c-10.395-3.356-21.139-5.63-31.748-8.348c-0.549,0.367-1.121,0.704-1.645,1.104
		c-9.086,6.952-13.338,6.187-18.349-3.956c-1.981-4.01-5.057-5.922-8.919-7.307c-11.273-4.04-22.518-8.157-33.79-12.199
		c-3.956-1.419-7.959-2.707-14.204-4.821c3.679,4.45,5.716,7.033,7.876,9.509c11.606,13.301,23.35,26.483,34.811,39.907
		c3.997,4.682,7.413,9.011,14.81,7.627c4.297-0.803,7.986,2.558,8.411,6.857c0.318,3.228-0.754,7.224-2.622,9.884
		c-2.507,3.57-7.307,4.267-10.81,1.964c-2.7-1.774-4.219-5.467-6.021-8.452c-1.818-3.012-2.726-6.801-5.087-9.22
		c-18.604-19.056-37.452-37.874-56.259-56.731c-1.426-1.43-3.116-2.594-5.717-4.729c0.537,2.563,0.56,3.563,0.947,4.392
		c6.914,14.758,13.634,29.614,20.919,44.188c3.773,7.55,6.826,15.804,17.33,17.612c5.014,0.864,6.49,7.834,3.829,12.509
		c-2.177,3.824-5.551,5.78-9.98,5.145c-4.757-0.682-8.562-3.329-8.458-8.3c0.133-6.411-2.307-11.543-5.454-16.736
		c-9.307-15.36-18.444-30.822-27.703-46.211c-0.932-1.549-2.237-2.872-4.369-5.559c-0.46,2.79-0.784,3.965-0.829,5.15
		c-1.408,36.572-2.979,73.139-4.129,109.72c-1.719,54.648,44.396,95.66,80.257,107.186c6.785,2.181,13.621,1.973,20.027-2.838
		c-5.292-6.948-10.354-13.597-15.418-20.245c0.49-0.524,0.979-1.048,1.47-1.572c2.466,1.357,5.019,2.58,7.378,4.102
		c4.474,2.885,8.831,5.952,13.248,8.925c4.833,3.252,9.87,3.862,14.998,0.804c22.916-13.669,45.489-27.783,63.501-47.97
		c14.211-15.928,14.661-18.969,5.066-37.986c-1.685-3.337-3.187-6.766-4.773-10.152c0.557-0.318,1.113-0.638,1.67-0.956
		C1222.322,461.156,1227.583,466.141,1233.937,472.16z M915.852,542.191c5.483,0.943,9.646,1.765,13.84,2.365
		c32.568,4.662,56.131-8.053,69.642-37.641c2.071-4.537,4.049-9.161,5.543-13.911c4.985-15.848,9.132-31.876,9.209-49.044
		c-1.596,0.099-2.567-0.066-3.351,0.244c-4.831,1.922-9.348,1.901-12.334-2.917c-2.678-4.321-0.656-8.007,2.016-11.872
		c1.94-2.809,3.275-6.471,3.614-9.878c1.844-18.559,3.323-37.154,4.857-55.743c0.333-4.036,0.382-8.096,0.561-12.146
		c-2.473,0.709-3.446,1.581-3.974,2.669c-11.91,24.569-23.797,49.15-35.617,73.762c-2.378,4.951-3.287,10.158-1.287,15.502
		c1.717,4.586-0.252,7.807-3.849,10.242c-4.521,3.062-11.15,1.706-14.253-2.686c-3.309-4.684-2.52-11.181,3.064-13.61
		c6.522-2.84,9.358-7.549,11.805-13.634c8.562-21.306,17.57-42.431,26.287-63.675c2.097-5.109,3.721-10.413,5.563-15.627
		c-2.865,0.394-4.456,1.481-5.634,2.91c-12.92,15.662-25.729,31.416-38.682,47.051c-3.076,3.713-4.921,7.487-5.127,12.55
		c-0.241,5.882-4.687,9.55-9.667,9.434c-4.526-0.106-9.139-3.923-10.075-8.336c-1.062-5.001,1.513-9.766,7.134-11.269
		c5.234-1.398,8.629-4.488,11.732-8.617c12.799-17.025,25.778-33.914,38.645-50.889c1.727-2.279,3.183-4.764,5.641-8.478
		c-4.367,0-7.228-0.138-10.071,0.023c-12.636,0.716-25.264,2.072-37.901,2.155c-18.256,0.12-35.663,2.906-51.746,12.078
		c-3.147,1.795-6.689,2.988-10.164,4.104c-20.386,6.542-36.148,19.599-49.778,35.509c-9.088,10.609-15.151,22.755-15.862,36.982
		c-1.069,21.423,0.484,42.642,6.359,63.357c1.439,5.076,3.298,10.227,6.02,14.7c3.781,6.214,9.333,10.241,17.029,9.015
		c4.914-5.693,5.912-13.859,14.178-17.896c-1.127,5.916-2.298,10.747-2.877,15.647c-0.289,2.451-0.445,5.943,0.96,7.401
		c8.74,9.068,16.493,19.379,28.148,25.142c13.458,6.654,17.949,5.652,27.849-5.365c5.389-5.996,10.936-11.85,16.411-17.768
		c0.702,0.537,1.404,1.074,2.106,1.611C926.652,524.23,921.491,532.813,915.852,542.191z M871.736,145.956
		c-3.282-1.355-6.656-2.528-9.829-4.103c-6.86-3.405-13.637-6.981-20.412-10.557c-5.511-2.909-10.84-2.768-16.067,0.658
		c-1.949,1.278-3.916,2.532-5.87,3.804c-21.536,14.017-36.693,33.888-48.925,55.821c-7.408,13.284-13.092,27.686-18.144,42.079
		c-4.152,11.835-2.821,14.172,8.4,19.697c14.015,6.9,28.494,12.853,42.738,19.292c3.295,1.489,7.363,1.933,9.952,6.37
		c-22.588,0.13-41.646-10.23-62.806-15.98c3.216,22.089,14.431,36.581,33.813,43.489c10.493,3.74,21.938,5.51,33.104,6.527
		c26.533,2.417,53.143,4.069,79.747,5.582c10.269,0.584,20.672,0.646,30.895-0.316c10.566-0.995,20.999-3.459,31.466-5.413
		c4.201-0.784,8.338-1.92,12.504-2.896c-0.072-0.688-0.146-1.376-0.218-2.063c-30.479-6.248-60.96-12.497-89.893-18.428
		c-4.858,2.849-8.035,5.688-11.691,6.596c-4.115,1.021-7.799-1.514-9.878-5.305c-2.396-4.368-1.043-8.24,2.111-11.848
		c3.254-3.723,7.298-3.827,10.789-1.527c5.381,3.545,10.878,6.094,17.314,6.964c27.048,3.653,54.07,7.501,81.112,11.2
		c1.594,0.218,3.281-0.248,4.925-0.396c-20.099-11.457-40.372-21.417-60.838-30.963c-2.726-1.271-6.475-0.866-9.668-0.508
		c-6.443,0.722-10.225-0.852-12.096-5.745c-1.896-4.958,0.091-10.244,4.813-12.81c4.931-2.679,8.759-1.524,12.975,3.48
		c2.309,2.742,4.577,6.188,7.643,7.511c18.626,8.04,37.467,15.583,56.267,23.215c1.826,0.741,3.844,1.251,5.804,1.374
		c3.808,0.24,7.207-0.642,9.073-5.223c-7.695-11.503-15.121-23.37-23.307-34.688c-21.248-29.384-38.85-60.507-48.014-95.923
		c-1.842-7.118-6.021-12.729-13.072-15.433c-9.005-3.453-17.989-7.19-27.302-9.544c-8.583-2.169-17.563-2.433-26.907,2.251
		C859.274,130.215,868.933,134.729,871.736,145.956z M1017.395,391.41c-0.266-0.043-0.529-0.086-0.795-0.129
		c-1.017,6.797-2.438,13.563-2.934,20.398c-0.479,6.604-4.692,13.583,1.584,21.551
		C1016.021,418.175,1016.708,404.793,1017.395,391.41z"/>
	<path fill-rule="evenodd" clip-rule="evenodd" fill="#0D0D0D" opacity="0.3" d="M304.429,1211.473c-2.387,3.931-4.343,7.393-6.523,10.706
		c-12.438,18.899-28.038,33.837-50.731,39.507c-11.538,2.883-23.086,1.861-34.635-0.51c-24.031-4.936-46.626-13.386-67.211-26.878
		c-13.894-9.106-25.247-20.703-33.211-35.325c-6.81-12.502-15.953-22.81-26.971-31.749c-20.848-16.916-26.624-37.647-18.113-63.341
		c1.675-5.057,3.641-10.033,5.031-15.166c5.858-21.612,19.859-36.46,38.805-47.293c2.566-1.467,5.114-2.966,9.206-5.341
		c-8.465-2.283-15.515-4.186-22.564-6.086c-1.284-0.346-2.556-0.771-3.86-1.009c-34.626-6.313-57.529-26.888-72.576-58.045
		C10.386,948.811,2.733,925.965,0.477,901.51c-2.537-27.486,5.064-52.052,22.795-73.315c6.714-8.05,15.008-14.157,24.492-18.576
		c10.691-4.981,20.404-11.435,28.369-20.093c21.692-23.577,49.123-29.005,79.371-25.524c16.607,1.91,32.619,6.313,48.082,12.717
		c2.966,1.229,6.125,1.989,9.979,3.215c0.651-10.033,1.075-18.938,1.841-27.813c1.318-15.29,6.896-29.039,15.566-41.615
		c7.173-10.403,16.694-17.554,29.466-18.378c12.971-0.837,22.563-7.296,31.168-15.997c11.621-11.751,25.568-19.107,41.763-21.887
		c20.09-3.447,40.28-5.178,60.567-1.344c14.708,2.78,28.378,8.895,39.54,18.214c12.081,10.086,21.241,23.745,22.357,40
		c1.146,16.715,8.224,28.275,22.632,36.114c4.36,2.372,8.188,5.707,12.354,8.461c12.66,8.369,17.644,20.318,16.537,35.136
		c-0.224,2.986-0.604,5.961-1.067,10.436c3.697-0.422,7.135-0.591,10.48-1.234c16.341-3.144,32.592-6.71,49.458-5.123
		c22.756,2.141,40.37,12.415,49.069,33.848c11.13,27.421,21.616,55.174,30.76,83.31c8.648,26.609,1.319,45.619-21.657,61.518
		c-9.35,6.469-16.218,13.954-20.056,25.081c-5.727,16.602-17.878,28.12-34.261,34.183c-9.902,3.664-20.46,5.621-30.803,7.999
		c-5.155,1.185-10.489,1.592-16.876,2.515c1.479,2.776,2.312,5.192,3.826,7.052c23.494,28.853,28.403,62.335,24.451,97.987
		c-0.659,5.94-1.813,11.861-3.201,17.681c-5.252,22.032-17.058,39.708-36.32,51.792c-10.699,6.712-21.759,12.997-33.188,18.337
		c-6.146,2.873-13.374,4.405-20.188,4.677c-14.214,0.564-27.581,3.946-40.685,9.076c-8.357,3.271-16.774,6.398-25.221,9.435
		c-32.038,11.516-57.619-2.813-73.709-24.607C313.074,1227.878,309.365,1219.949,304.429,1211.473z M280.401,920.497
		c-2.014-16.277-5.78-30.951-14.702-43.955c-15.637-22.794-30.83-45.898-46.82-68.439c-3.899-5.496-9.442-11.003-15.479-13.593
		c-20.922-8.979-42.854-14.68-65.925-13.157c-17.025,1.124-32.896,5.814-44.701,19.191c-10.075,11.417-21.936,20.163-35.603,26.891
		c-16.776,8.259-26.887,22.489-32.689,39.874c-2.782,8.335-1.96,16.466,3.629,23.674c3.867,4.987,7.771,9.946,11.682,14.899
		c6.811,8.628,13.64,17.241,20.461,25.861c-15.67-3.739-25.277-15.836-38.144-24.942c0,3.806-0.415,6.398,0.064,8.814
		c4.645,23.408,13.136,45.365,25.571,65.733c6.572,10.765,15.637,19.021,26.956,24.608c17.198,8.491,35.484,13.05,54.528,15.024
		c30.693,3.183,57.145-9.869,83.984-21.532c0.903-0.393,1.682-1.068,2.527-1.599c10.679-6.686,21.34-13.398,32.051-20.031
		c2.687-1.663,5.533-3.069,9.671-5.345c-14.866-4.031-28.859-4.174-41.357-10.646c3.881-1.035,7.665-1.069,11.448-1.028
		c10.992,0.119,21.986,0.433,32.977,0.332c5.064-0.046,10.922-0.961,12.824-6.024c2.16-5.751-3.266-8.82-7.325-11.6
		c-22.253-15.234-44.585-30.354-66.894-45.507c-2.256-1.532-4.543-3.018-6.815-4.524c2.768-0.436,4.993,0.061,7.136,0.797
		c17.39,5.969,33.949,13.543,48.94,24.406c6.081,4.406,12.748,8.002,18.721,11.702C272.243,926.567,276.225,923.605,280.401,920.497
		z M323.835,914.414c2.172-30.7,4.28-60.581,6.425-90.46c0.069-0.971,0.462-1.93,0.793-2.861c0.086-0.244,0.491-0.407,0.781-0.535
		c0.256-0.113,0.556-0.125,1.813-0.38c0.761,3.813,1.888,7.597,2.201,11.446c0.567,6.967,0.85,13.972,0.895,20.963
		c0.117,17.96,0.04,35.921,0.04,53.582c10.501,4.208,19.688,7.891,29.096,11.661c1.657-1.411,3.278-2.553,4.614-3.964
		c13.501-14.265,27.23-28.325,40.36-42.925c21.027-23.381,42.727-45.449,72.461-58.344c16.767-7.271,18.152-31.396,3.496-42.543
		c-6.608-5.026-13.637-9.585-20.833-13.736c-15.596-8.999-24.258-21.961-25.884-40.128c-2.007-22.428-14.927-36.398-36.087-42.929
		c-18.836-5.812-38.1-5.044-57.446-3.36c-18.325,1.596-34.052,8.344-47.016,21.566c-2.998,3.057-6.605,5.648-10.282,7.878
		c-6.911,4.193-11.577,9.869-13.512,17.758c-2.315,9.439-4.677,18.867-7.21,29.072c-6.875-11.98-3.654-24.711-5.163-36.296
		c-4.73-2.124-8.228-1.168-11.828,1.271c-7.411,5.019-12.68,11.699-16.37,19.727c-7.395,16.083-9.944,33.014-8.99,50.607
		c0.388,7.154,2.355,13.562,6.168,19.725c12.961,20.952,25.667,42.063,38.298,63.216c3.229,5.409,6.183,11.045,8.631,16.843
		c4.14,9.802,7.853,19.788,11.584,29.757c1.297,3.464,2.902,5.095,6.827,2.277c-0.275-1.796-0.435-3.724-0.879-5.583
		c-4.02-16.83-8.182-33.627-12.069-50.486c-0.813-3.521-0.666-7.263-0.962-10.903c0.895-0.176,1.789-0.352,2.683-0.527
		c8.805,23.68,17.609,47.359,26.475,71.204C317.173,915.999,320.047,915.315,323.835,914.414z M258.091,1000.057
		c-9.093,7.033-19.873,10.552-31.814,11.736c-6.492,0.645-13.012,2.847-19.105,5.352c-23.986,9.859-47.886,19.94-71.646,30.332
		c-7.576,3.313-15.106,7.161-21.82,11.94c-23.609,16.806-34.191,40.069-32.289,68.94c0.683,10.362,6.083,17.675,15.497,23.142
		c3.129-12.416,7.827-22.809,18.363-29.726c-0.44,3.564-1.578,6.843-2.761,10.104c-5.392,14.884-3.848,28.702,5.978,41.45
		c3.239,4.203,6.293,8.633,8.815,13.293c8.702,16.081,21.667,27.629,37.536,36.209c17.707,9.574,36.602,15.935,56.33,19.464
		c16.887,3.021,32.208-1.142,45.6-12.222c14.604-12.085,23.035-28.233,30.073-45.251c1.731-4.188,2.501-8.903,2.986-13.453
		c1.871-17.51,3.047-35.101,5.228-52.567c3.051-24.429,6.801-48.77,10.164-73.159c0.44-3.191,0.364-6.454,0.466-8.447
		c-7.01-3.665-12.826-6.705-18.878-9.869c-9.6,9.155-12.563,23.45-22.621,32.33c-0.618-0.36-1.237-0.721-1.855-1.081
		c4.403-12.376,8.806-24.752,13.025-36.612C279.951,1010.172,272.565,1001.71,258.091,1000.057z M366.264,1018.295
		c17.408,25.854,40.047,47.867,57.761,73.877c-6.71-3.869-12.884-8.261-18.124-13.572c-15.654-15.869-30.875-32.166-46.429-48.138
		c-3.452-3.544-7.477-6.563-11.421-9.585c-2.367-1.813-5.748-2.082-7.02,0.673c-3.248,7.032-5.545,14.516-11.113,20.269
		c-0.183,0.188-0.077,0.646-0.128,0.975c-1.939,12.475-4.697,24.887-5.661,37.436c-2.294,29.868-4.236,59.783-5.358,89.716
		c-0.783,20.883,4.654,40.245,19.017,56.306c15.689,17.544,39.314,20.167,59.47,6.264c-7.574-6.227-15.018-12.528-18.979-24.057
		c3.359,2.294,5.061,3.31,6.601,4.529c13.791,10.928,28.839,14.098,45.889,8.631c5.912-1.896,12.482-1.65,18.691-2.731
		c6.834-1.19,14.173-1.567,20.269-4.458c11.684-5.54,22.858-12.264,33.842-19.14c10.21-6.392,17.002-15.819,20.559-27.382
		c1.758-5.719,3.38-11.499,4.674-17.338c7.727-34.852,3.322-67.451-18.096-96.91c-4.745-6.527-10.229-10.69-18.873-11.178
		c-12.896-0.729-24.366-4.883-33.802-14.872c-4.558-4.824-11.515-8.096-17.991-10.243c-13.223-4.385-26.841-7.588-40.321-11.179
		C379.76,1000.87,379.75,1000.906,366.264,1018.295z M563.114,973.105c4.444-0.837,7.881-1.731,11.372-2.098
		c13.203-1.387,25.153-5.905,35.977-13.599c15.682-11.146,20.388-21.214,14.476-39.447c-8.912-27.488-19.137-54.567-29.37-81.606
		c-5.239-13.843-16.319-20.092-30.953-21.41c-21.303-1.918-41.8,1.322-61.91,7.992c-26.61,8.826-51.153,21.921-70.564,42.032
		c-18.685,19.357-35.033,40.975-52.305,61.685c-2.489,2.985-4.398,6.453-6.405,9.443c8.091,11.402,10.046,12.732,22.589,12.618
		c14.313-0.132,28.62-0.844,42.933-1.206c3.147-0.08,6.306,0.25,9.459,0.391c0.131,0.729,0.261,1.457,0.392,2.186
		c-5.114,1.588-10.129,3.757-15.362,4.649c-13.761,2.347-27.607,4.195-41.437,6.127c-7.036,0.983-8.056,1.575-8.479,8.468
		c-0.383,6.25-0.081,12.542-0.081,19.255c3.871,1.216,6.923,2.479,10.1,3.124c29.467,5.973,57.278,16.753,84.659,28.844
		c11.292,4.986,23.163,5.654,35.255,4.027c3.955-0.532,7.974-0.768,11.857-1.618c11.979-2.624,24.296-4.396,35.756-8.518
		c14.664-5.274,24.015-16.022,25.45-32.704C579.002,978.855,570.148,980.465,563.114,973.105z M355.753,965.485
		c3.351-0.57,4.308-0.911,5.245-0.862c4.264,0.225,8.242-0.309,9.567-5.135c1.287-4.688-1.863-7.6-5.227-9.82
		c-5.275-3.482-8.582-8.06-10.224-14.172c-0.76-2.825-2.287-5.569-3.976-7.996c-4.448-6.394-9.725-7.594-16.059-3.171
		c-4.848,3.386-9.885,5.509-15.743,5.205c-4.565-0.237-6.682,2.523-8.015,6.1c-0.835,2.239-0.974,4.738-1.833,9.274
		c-3.269-4.68-5.525-7.757-7.617-10.943c-2.798-4.264-5.939-8.061-11.248-9.193c-6.793-1.448-10.554,2.511-8.236,8.995
		c1.102,3.085,2.975,5.933,4.737,8.737c4.448,7.071,4.055,13.574-1.244,20.183c-3.728,4.647-7.041,9.698-9.968,14.89
		c-1.563,2.772-2.543,6.2-2.679,9.38c-0.244,5.707,3.544,8.498,9.13,7.09c2.696-0.68,5.216-2.061,9.233-3.704
		c-1.504,3.449-2.576,5.437-3.252,7.55c-2.022,6.322-0.902,9.472,5.27,10.247c8.013,1.007,13.425,4.597,17.606,11.331
		c2.404,3.872,6.448,4.096,10.614,1.992c6.256-3.159,7.584-6.743,4.95-14.968c-1.793-5.596-3.995-11.148,1.874-16.244
		c3.234,11.269,4.687,14.112,9.821,15.801c18.536,6.092,31.622-7.114,30.907-20.488c-0.245-4.592-1.229-9.144-1.765-12.922
		C363.731,970.294,360.679,968.455,355.753,965.485z"/>
	<path fill-rule="evenodd" clip-rule="evenodd" fill="#0D0D0D" opacity="0.3" d="M822.685,881.107c-3.553-4.451-6.207-7.795-8.88-11.124
		c-9.937-12.374-17.273-26.012-20.878-41.603c-4.549-19.683-1.235-37.716,10.865-53.955c11.655-15.64,25.614-28.875,42.24-39.144
		c30.464-18.813,63.821-29.949,98.938-35.585c26.178-4.2,47.837,4.313,63.92,26.049c9.639,13.025,16.762,27.12,20.717,42.869
		c2.258,8.988,5.012,17.852,9.554,27.117c3.454-7.582,7.594-14.935,10.217-22.793c5.447-16.315,15.793-28.953,27.438-41.149
		c15.16-15.879,33.55-19.855,53.981-16.008c26.758,5.039,50.414,16.128,69.473,36.548c8.563,9.174,19.198,16.398,28.783,24.636
		c6.821,5.861,13.76,11.636,20.124,17.973c22.978,22.875,25.959,52.918,8.247,80.116c-9.099,13.972-21.542,24.399-35.398,33.313
		c-4.445,2.86-8.955,5.62-13.391,10.222c5.977,0.775,11.972,1.428,17.924,2.357c7.547,1.178,15.232,1.957,22.556,3.995
		c32.503,9.048,51.391,33.509,52.396,67.203c0.422,14.158-1.822,27.935-6.736,41.171c-7.184,19.349-14.538,38.639-22.216,57.795
		c-2.836,7.076-6.487,13.879-10.299,20.499c-10.145,17.619-25.89,26.307-45.897,27.454c-24.832,1.425-49.301-0.149-72.488-10.327
		c-5.72-2.511-11.282-5.382-18.574-8.883c0.644,4.245,1.172,6.966,1.451,9.711c0.972,9.568,2.664,19.152,2.587,28.719
		c-0.118,14.704-5.264,27.944-14.326,39.703c-16.15,20.956-37.046,35.164-61.695,44.188c-8.418,3.082-16.89,3.421-25.476,0.625
		c-15.093-4.914-30.493-6.055-46.339-4.917c-17.536,1.259-32.956-4.472-44.731-17.871c-8.569-9.751-16.725-19.899-24.581-30.237
		c-14.398-18.945-17.839-40.411-13.643-63.465c3.213-17.648,10.465-33.616,19.944-48.686c2.387-3.793,4.731-7.612,7.095-11.419
		c-0.511-0.532-1.022-1.064-1.533-1.597c-2.916,1.89-5.866,3.728-8.741,5.676c-16.267,11.023-32.491,22.11-48.778,33.104
		c-15.177,10.244-31.529,17.318-50.185,17.49c-22.366,0.207-39.731-8.288-51.425-28.258c-14.778-25.238-27.202-51.24-30.258-80.727
		c-3.908-37.717,4.43-72.199,28.575-102.072c12.734-15.755,29.367-24.678,49.583-26.846
		C815.685,882.67,818.496,881.916,822.685,881.107z M974.568,947.417c-2.237-1.874-4.384-3.87-6.728-5.6
		c-10.186-7.518-20.435-14.949-30.65-22.427c-14.366-10.516-25.084-23.812-30.698-40.869c-1.409-4.28-3.216-7.784-7.579-9.923
		c-3.519-1.726-4.305-5.084-2.015-8.439c2.712-3.973,6.956-3.68,10.884-2.771c4.017,0.93,4.631,4.171,4.19,7.876
		c-0.344,2.889-1.215,6.153-0.291,8.68c3.917,10.696,8.998,20.79,17.996,28.348c15.876,13.334,32.961,24.875,51.265,34.597
		c1.775,0.943,3.884,1.258,6.653,2.116c-0.873-1.661-1.093-2.319-1.502-2.824c-18.969-23.397-30.329-49.872-32.724-80.067
		c-0.426-5.374-2.103-10.283-6.624-14.063c-1.709-1.43-3.558-5.455-2.811-6.517c1.9-2.703,4.943-5.235,8.056-6.302
		c4.396-1.506,9.803,1.494,11.943,5.287c2.1,3.719,0.346,6.485-2.396,8.693c-3.22,2.593-4.241,5.609-3.512,9.655
		c4.32,23.981,13.113,46.093,27.735,65.663c6.177,8.267,14.638,13.164,24.935,14.794c0.823-1.149,1.583-1.867,1.934-2.747
		c9.301-23.353,15.084-47.677,17.975-72.527c2.272-19.546-1.164-39.064-4.626-58.258c-4.139-22.948-14.459-43.508-27.967-62.428
		c-7.626-10.681-17.677-18.336-30.616-21.006c-26.269-5.42-50.775,0.393-74.006,12.932c-0.257,0.139-0.373,0.541-0.657,0.979
		c5.953,12.932,15.19,24.497,17.559,39.259c-9.567-11.813-19.135-23.627-28.849-35.621c-19.798,9.814-37.377,20.569-52.748,34.418
		c-11.567,10.423-11.206,12.09-3.339,25.308c1.816,3.052,5.214,5.811,3.379,10.845c-5.019-3.826-9.448-7.202-14.479-11.037
		c-1.054,2.896-2.215,4.931-2.51,7.083c-2.133,15.599-0.2,30.543,7.506,44.524c7.478,13.568,17.035,25.466,28.635,35.693
		c21.642,19.082,45.851,34.276,71.782,46.766C937.012,935.857,954.229,944.595,974.568,947.417z M1152.482,738.237
		c-12.639-5.778-25.287-7.587-38.392-7.659c-15.952-0.089-28.92,6.214-37.326,19.379c-10.378,16.254-19.438,33.358-28.781,50.254
		c-1.035,1.872-1.151,5.399-0.052,7.087c3.224,4.946,1.212,8.455-2.475,11.203c-4.792,3.572-4.501,7.977-4.39,13.245
		c0.288,13.592,1.267,27.473-0.972,40.742c-3.029,17.955-8.805,35.447-13.397,53.14c-0.788,3.036-1.555,6.078-2.632,10.29
		c2.902-0.897,5.023-0.881,5.749-1.878c12.105-16.66,17.979-36.188,25.517-55.015c-1.146-1.644-2.25-2.905-2.993-4.353
		c-2.936-5.715-1.43-8.842,4.709-9.892c1.299-0.223,2.661-0.355,3.963-0.223c6.497,0.662,8.449,4.793,4.913,10.34
		c-1.247,1.956-2.991,3.674-3.88,5.767c-7.401,17.442-14.8,34.891-21.813,52.49c-1.149,2.886-5.143,6.923-0.416,9.633
		c3.774,2.165,5.682-2.261,7.886-4.454c23.244-23.141,42.389-49.578,61.264-76.239c1.937-2.734,1.831-5.041,1.247-8.236
		c-0.991-5.436,2.436-7.956,7.867-6.537c1.588,0.415,3.148,1.137,4.56,1.985c5.312,3.195,5.641,8.506,0.028,10.396
		c-6.137,2.066-8.721,6.777-12.044,11.264c-20.213,27.293-40.467,54.557-60.659,81.865c-0.882,1.193-1.296,2.731-2.454,5.256
		c3.561,0.349,6.097,1.028,8.521,0.746c5.604-0.655,11.291-1.28,16.703-2.787c47.399-13.198,92.472-31.9,133.843-58.722
		c10.25-6.646,20.542-14.233,28.319-23.485c19.22-22.861,19.761-44.834,0.66-65.376c-1.588-1.708-3.145-3.445-4.702-5.181
		c-7.12-7.93-13.892-16.21-21.438-23.711c-10.133-10.072-20.714-19.713-31.424-29.176c-3.382-2.988-7.794-4.812-11.988-7.319
		c-5.609,4.574-10.689,8.828-15.893,12.929c-5.191,4.091-9.824,9.043-17.53,13.146
		C1136.513,755.662,1148.165,750.074,1152.482,738.237z M992.277,1204.63c0.596-0.191,1.191-0.384,1.788-0.575
		c2.073,4.342,3.817,8.889,6.347,12.946c1.431,2.296,3.918,4.959,6.329,5.435c9.127,1.801,18.461,4.07,27.635,3.756
		c13.927-0.479,26.061-2.244,26.12-22.576c0.02-6.773-0.016-14.32,4.905-22.538c1.241,11.256,2.27,20.582,3.495,31.699
		c8.828-5.452,16.446-9.501,23.341-14.54c18.729-13.691,25.693-32.516,22.394-55.198c-2.963-20.371-10.534-39.158-20.623-56.979
		c-11.649-20.578-23.119-41.267-35.221-61.576c-5.043-8.463-11.519-16.071-17.252-23.944c-3.318,1.359-5.416,2.219-7.894,3.233
		c1.736,4.495,3.271,8.48,4.815,12.461c12.248,31.562,21.494,63.781,20.677,98.065c-0.118,4.962,2.102,8.053,5.366,11.107
		c2.89,2.704,4.374,6.06,2.11,9.844c-2.384,3.983-6.317,4.473-10.525,3.981c-4.598-0.536-8.35-2.396-10.188-6.896
		c-1.608-3.94-0.53-7.365,3.045-9.535c4.605-2.796,4.676-6.529,3.565-11.187c-3.162-13.259-5.289-26.81-9.172-39.843
		c-5.884-19.75-12.851-39.18-19.49-58.7c-1.406-4.134-3.156-8.375-9.694-6.789c-0.64,2.212-1.642,4.655-2.033,7.192
		c-3.829,24.775-10.853,48.708-18.862,72.39c-2.277,6.733-6.405,13.086-2.094,20.812c1.548,2.773-0.965,5.563-4.366,6.601
		c-4.244,1.296-7.957,0.698-10.787-2.878c-2.385-3.014-1.278-6.104,1.374-7.83c9.023-5.872,11.542-15.392,13.402-24.719
		c4.102-20.56,7.311-41.299,10.771-61.983c0.39-2.33,0.053-4.782,0.053-8.826c-9.735,7.59-17.467,14.467-26.014,20.106
		c-18.187,12.001-32.946,26.823-42.065,46.855c-0.685,1.503-1.614,2.932-2.631,4.238c-10.977,14.116-16.014,30.578-18.628,47.894
		c-2.943,19.495-0.53,37.891,12.313,53.854c5.428,6.746,10.222,14.103,16.278,20.216c8.41,8.49,17.333,16.597,26.799,23.875
		c7.473,5.746,16.15,7.589,24.617,1.109C992.277,1218.086,992.277,1211.357,992.277,1204.63z M1141.141,986.826
		c1.566-2.275,2.692-4.354,4.231-6.063c4.458-4.949,9.409-4.907,13.426,0.323c1.563,2.034,2.572,4.653,3.261,7.163
		c1.055,3.844,0.058,7.327-3.431,9.63c-3.182,2.101-6.55,1.778-9.188-0.755c-4.857-4.665-10.769-4.313-16.802-4.594
		c-18.27-0.848-36.53-1.93-54.779-3.15c-7.373-0.493-14.707-1.582-22.06-2.4c3.955,5.82,8.227,10.636,13.515,13.693
		c13.525,7.821,27.483,14.9,41.311,22.194c6.197,3.269,12.226,6.492,19.804,3.127c3.646-1.619,8.006,2.146,6.91,5.807
		c-0.933,3.114-3.564,6.207-6.269,8.175c-3.006,2.186-6.711,1.229-8.495-2.305c-2.497-4.945-7.063-6.741-11.569-8.909
		c-10.489-5.045-20.835-10.394-31.392-15.292c-5.507-2.556-11.336-4.418-18.853-7.294c2.699,4.543,4.126,7.163,5.754,9.65
		c13.492,20.616,27.014,41.213,40.542,61.805c14.569,22.176,34.832,36.163,60.58,42.493c20.063,4.932,40.129,5.855,60.249,0.749
		c8.523-2.163,16.137-5.79,19.27-15.296c-7.382-3.757-16.582-1.865-24.024-9.823c8.558-0.271,15.424-0.632,22.292-0.667
		c7.527-0.037,12.631-3.247,15.316-10.393c4.563-12.14,10.196-23.968,13.657-36.406c3.904-14.03,6.143-28.548,8.646-42.934
		c1.526-8.775-1.867-15.646-9.943-19.933c-3.819-2.027-7.62-4.093-11.37-6.244c-2.156-1.236-4.194-2.679-6.285-4.029
		c0.172-0.441,0.345-0.882,0.518-1.323c7.049,0.888,14.099,1.776,22.327,2.813c-3.042-11.665-8.66-20.259-17.566-26.664
		c-9.347-6.723-19.954-10.631-31.145-12.827c-12.722-2.496-25.501-4.729-38.306-6.753c-3.766-0.596-7.705-0.092-11.305-0.092
		c-2.271,10.686-2.75,10.895-12.034,12.93c-4.149,0.91-8.115,2.766-12.077,4.404c-7.673,3.172-15.139,6.909-22.951,9.673
		c-18.93,6.696-38.673,9.624-58.557,11.714c-5.118,0.538-10.395,0.529-15.222,3.55
		C1067.02,980.611,1112.242,988.288,1141.141,986.826z M780.211,1086.385c1.454,1.878,1.956,2.762,2.669,3.415
		c17.912,16.421,38.652,18.187,59.339,8.021c20.797-10.22,40.26-23.154,60.358-34.929c-0.897-2.552-1.378-3.743-1.737-4.97
		c-2.504-8.556-0.205-11.069,8.694-11.911c4.687-0.443,9.787-2.102,13.632-4.759c9.576-6.617,18.669-13.962,27.718-21.309
		c11.286-9.163,19.005-21.313,27.037-33.185c1.829-2.704,1.698-5.372-0.563-7.095c-1.794-1.367-4.519-1.632-6.89-2.058
		c-0.824-0.148-1.794,0.814-2.751,1.06c-14.462,3.706-28.767,8.447-43.451,10.744c-13.717,2.146-27.84,1.69-42.51,2.415
		c-0.499,0.644-1.529,1.93-2.516,3.249c-2.835,3.793-6.327,5.864-11.206,4.319c-4.83-1.53-8.029-4.712-9.17-9.66
		c-1.365-5.92,3.225-10.701,9.148-9.443c2.232,0.474,4.224,2.075,6.456,2.56c4.144,0.901,8.479,2.278,12.567,1.853
		c27.947-2.911,55.045-9.367,80.826-20.793c3.188-1.413,6.283-3.031,11.311-5.471c-4.064-1.193-5.878-1.67-7.655-2.257
		c-20.505-6.766-41.097-13.287-61.479-20.402c-19.325-6.745-36.727-17.223-53.239-29.202c-4.044-2.933-7.994-5.995-11.97-9.021
		c-5.656-4.305-12.057-5.865-18.866-4.109c-8.686,2.24-17.397,4.587-25.783,7.728c-8.411,3.149-15.604,8.268-20.498,17.258
		c10.249,2.113,20.416,0.455,28.664,6.971c-8.103,2.559-16.161,5.389-24.218,5.382c-12.945-0.01-18.93,6.279-22.884,17.799
		c-9.261,26.986-9.261,54.373-4.682,81.926c1.952,11.743,5.295,23.364,9.162,34.645c3.179,9.271,4.505,9.852,14.068,8.281
		c15.402-2.527,30.667-5.891,45.993-8.882c3.46-0.676,6.935-1.275,10.402-1.909C820.325,1076.809,799.816,1079.25,780.211,1086.385z
		"/>
	<path fill-rule="evenodd" clip-rule="evenodd" fill="#0D0D0D" opacity="0.3" d="M1136.08,1888.86c-3.065-8.513-5.286-14.679-7.748-21.517
		c-2.95,0-5.869-0.16-8.766,0.028c-12.852,0.834-24.385-2.913-34.735-10.265c-5.145-3.653-10.26-7.519-14.686-11.985
		c-26.284-26.526-58.643-41.183-94.702-48.146c-36.905-7.126-73.989-13.325-110.953-20.157
		c-25.237-4.665-50.186-10.571-73.499-21.693c-25.147-11.997-48.078-27.168-66.29-48.657
		c-17.996-21.236-29.313-45.285-29.004-73.604c0.451-41.469,20.21-71.551,55.993-91.395c7.204-3.994,15.196-6.805,23.115-9.206
		c7.483-2.27,13.129-6.378,17.08-12.878c16.438-27.047,41.089-35.146,71.127-31.192c8.87,1.168,17.791,1.941,27.11,2.941
		c1.025-3.64,1.98-6.761,2.783-9.921c8.635-34.012,31.655-52.134,66.127-58.147c28.27-4.932,56.32-3.534,84.192,3.317
		c11.969,2.943,23.645,2.07,34.962-3.706c15.492-7.907,31.871-11.133,49.34-8.164c10.912,1.855,21.366-0.323,30.495-6.685
		c43.017-29.977,109.328-19.717,145.643,13.646c12.305,11.305,21.141,24.666,25.985,40.747c9.513,31.58,14.524,63.549,10.209,96.618
		c-3.277,25.11-11.04,48.637-23.638,70.547c-16.598,28.864-37.579,54.167-63.109,75.527c-16.586,13.877-33.396,27.523-50.627,40.583
		c-25.242,19.132-41.939,43.503-47.691,74.811c-1.311,7.134-0.774,14.589-1.501,21.854c-0.485,4.852-0.962,9.924-2.737,14.381
		C1146.507,1866.706,1141.661,1876.549,1136.08,1888.86z M1066.095,1706.645c0.57-0.245,1.14-0.49,1.71-0.734
		c3.625,4.265,7.136,8.635,10.918,12.757c2.316,2.522,3.941,7.151,8.546,5.237c4.634-1.927,2.44-6.456,2.171-9.722
		c-2.169-26.228-4.644-52.431-6.943-78.648c-0.266-3.033-0.036-6.111-0.036-9.168c13.808,29.992,16.823,62.63,25.847,95.617
		c1.582-4.087,2.834-6.164,3.172-8.38c2.203-14.46,5.164-28.89,6.081-43.442c1.9-30.146-3.208-59.775-8.713-89.29
		c-1.034-5.545-2.039-11.095-3.057-16.642c20.14,48.564,28.063,99.037,23.828,151.097c13.711,2.209,19.189-0.234,24.708-10.699
		c1.702-3.228,3.25-6.594,4.385-10.055c4.461-13.597,8.699-27.267,13.105-40.882c0.596-1.839,1.682-3.52,3.18-6.579
		c0.897,21.887-4.151,41.75-2.87,62.281c3.763-2.335,7.071-4.729,8.978-7.953c5.907-9.992,11.614-20.134,16.766-30.531
		c4.867-9.823,8.838-20.087,13.412-30.063c1.354-2.953,3.411-5.585,5.146-8.364c0.55,0.31,1.099,0.62,1.647,0.931
		c-5.581,24.023-11.163,48.048-17.134,73.751c14.504-6.36,22.898-15.996,29.593-27.338c5.077-8.602,9.747-17.442,14.806-26.056
		c1.883-3.207,4.357-6.066,6.563-9.084c0.478,0.299,0.956,0.6,1.434,0.898c-1.326,9.447-2.652,18.894-4.083,29.075
		c12.534-2.432,20.903-9.231,27.48-18.261c4.296-5.898,7.59-12.517,11.54-18.679c5.201-8.11,9.662-16.973,16.146-23.919
		c9.53-10.208,15.014-21.887,17.484-35.228c7.967-43.021,3.68-84.798-12.277-125.585c-6.151-15.723-16.324-27.285-30.979-35.109
		c-25.472-13.601-52.634-18.587-81.188-14.523c-24.488,3.485-40.382,17.856-45.47,40.236c-1.104,4.855-1.716,9.852-2.182,14.818
		c-1.275,13.598-2.516,27.202-3.471,40.825c-1.752,24.963-3.358,50.063,2.125,74.686c3.32,14.91,3.437,29.69,2.7,44.665
		c-0.151,3.089,0.886,7.354-4.022,7.777c-4.974,0.43-4.328-3.96-5.147-6.964c-0.087-0.317-0.07-0.663-0.131-0.989
		c-3.414-18.319-6.465-36.716-10.334-54.938c-5.773-27.198-14.349-53.375-30.373-76.569c-15.205-22.007-34.699-38.681-60.246-47.297
		c-32.596-10.994-65.026-8.258-96.95,3.054c-14.76,5.229-24.136,16.15-29.17,30.854c-11.85,34.611-10.849,69.179,3.808,102.379
		c17.606,39.881,36.991,78.979,55.777,118.334c7.282,15.255,15.033,30.285,22.752,45.783c-3.39,2.844-6.655,5.583-10.023,8.408
		c-5.832-10.727-10.896-21.142-16.945-30.95c-14.859-24.097-29.373-48.318-42.563-73.436
		c-25.77-49.073-67.572-78.843-120.148-93.774c-22.685-6.442-44.275-2.523-63.189,12.436
		c-38.428,30.391-45.383,85.482-15.666,124.255c13.117,17.115,28.99,31.136,47.684,41.937
		c24.438,14.121,50.765,23.218,78.214,29.256c5.902,1.299,11.894,1.72,19.19-1.707c-15.544-9.059-29.314-17.099-43.1-25.111
		c-7.485-4.352-15.012-8.631-22.489-12.996c-2.53-1.478-4.441-3.247-0.784-6.869c5.898,2.749,12.141,5.682,18.404,8.571
		c31.723,14.634,63.213,29.808,95.297,43.6c12.064,5.187,25.326,8.489,38.369,10.306c23.885,3.324,42.49-6.813,56.926-25.938
		c-14.385-26.798-28.496-53.084-42.48-79.132c4.41-3.8,6.153-1.315,7.744,1.523c4.882,8.717,9.313,17.726,14.727,26.098
		c7.219,11.162,14.898,22.06,22.964,32.626c4.744,6.215,11.27,10.552,19.539,10.72c11.217,0.228,21.259-3.619,31.189-8.801
		C1068.596,1722.327,1067.346,1714.486,1066.095,1706.645z M1034.01,1775.721c25.339,28.646,50.882,55.336,88.599,67.217
		c10.459-30.246,20.597-59.564,30.945-89.49C1110.177,1746,1071.003,1752.64,1034.01,1775.721z M868.345,1556.443
		c-4.483-4.9-8.345-8.938-11.98-13.168c-2.06-2.396-1.186-4.223,2.279-5.356c13.071,11.167,26.354,22.515,39.637,33.862
		c0.543-0.313,1.087-0.625,1.63-0.938c-3.631-21.718-7.262-43.436-10.795-64.568c-32.454-9.753-59.947-1.016-75.922,27.873
		c17.041,8.12,34.033,16.239,51.082,24.236C864.811,1558.637,865.937,1557.631,868.345,1556.443z M1078.685,1439.295
		c14.782,12.893,28.396,24.768,43.803,38.206c-0.953-12.852-1.729-23.317-2.504-33.782c0.531-0.073,1.063-0.146,1.595-0.219
		c3.498,4.15,6.996,8.303,11.417,13.55c0.945-6.229,1.337-10.808,2.382-15.231c1.604-6.785-1.598-11.052-7.155-13.587
		c-3.818-1.741-8.153-3.031-12.314-3.213C1102.021,1424.412,1090.378,1430.142,1078.685,1439.295z"/>
	<path fill-rule="evenodd" clip-rule="evenodd" fill="#0D0D0D" opacity="0.3" d="M438.808,1687.724c8.439,6.26,15.15,11.06,21.669,16.108
		c14.746,11.419,29.691,22.608,44.009,34.547c16.208,13.516,30.522,28.896,40.516,47.729c11.374,21.435,16.729,44.086,12.76,68.449
		c-2.666,16.364-9.819,30.406-22.098,41.523c-25.897,23.45-73.63,34.776-110.118,15.06c-5.199-2.81-10.309-6.259-14.488-10.395
		c-12.529-12.401-25.15-24.794-36.687-38.099c-19.317-22.279-31.654-48.342-38.612-76.964c-0.863-3.549-1.719-7.099-3.034-12.54
		c-2.226,4.6-3.663,7.797-5.288,10.896c-11.893,22.691-22.802,45.979-36.006,67.881c-15.512,25.73-38.799,42.898-67.626,51.596
		c-38.812,11.711-75.928,6.706-110.311-14.571c-33.993-21.035-44.956-55.441-30.44-92.688c9.597-24.623,26.038-44.06,47.204-59.444
		c10.443-7.592,21.679-14.094,33.978-22.003c-4.242-1.285-7.466-2.633-10.822-3.22c-34.004-5.949-59.169-24.646-76.976-53.652
		c-11.581-18.863-20.432-38.856-23.42-61.111c-2.177-16.217,1.237-31.123,9.626-44.973c15.854-26.171,52.479-46.313,88.402-33.532
		c24.363,8.667,47.734,20.125,71.54,30.358c1.479,0.637,2.874,1.474,5.826,3.005c-1.747-8.062-3.389-14.649-4.585-21.316
		c-6.4-35.693-0.298-69.586,15.2-102.003c7.483-15.655,15.816-30.877,27.223-44.09c14.606-16.92,32.45-28.38,55.046-31.534
		c14.561-2.032,27.373,1.925,37.439,12.345c40.976,42.413,64.799,91.666,58.665,152.237c-1.102,10.879-3.53,21.623-5.522,33.479
		c2.026-1.271,3.419-1.896,4.504-2.866c11.922-10.651,23.896-21.246,35.652-32.079c11.364-10.471,24.131-19.026,37.758-25.964
		c23.065-11.745,46.947-15.932,70.228-0.705c25.052,16.385,41.95,38.477,41.138,69.871c-0.702,27.103-11.854,50.209-31.193,69.263
		c-22.807,22.471-50.099,37.339-80.539,46.429c-13.68,4.085-27.763,6.818-41.652,10.212
		C445.571,1685.498,443.432,1686.288,438.808,1687.724z M457.536,1904.702c-0.028,0.731-0.056,1.464-0.084,2.196
		c6.259,0.672,12.511,1.787,18.777,1.879c5.276,0.078,10.631-0.704,15.846-1.67c33.343-6.174,57.334-35.376,55.705-69.08
		c-1.534-31.758-15.582-57.867-40.715-76.969c-30.481-23.167-62.043-44.907-92.93-67.548c-13.835-10.142-29.962-12.08-46.103-14.326
		c-0.688-0.096-1.526,0.898-2.758,1.678c2.565,4.56,5.005,8.896,7.445,13.233c-0.549,0.433-1.097,0.865-1.645,1.299
		c-8.684-6.78-17.366-13.56-27.553-21.514c0.838,9.655,7.102,15.355,7.401,24.548c-5.682-5.146-10.16-9.203-15.576-14.109
		c-1.125,5.291-1.534,9.274-2.872,12.917c-1.271,3.457,0.92,8.924-6.094,10.772c-1.186-9.303-2.285-17.917-3.383-26.531
		c-0.777-0.188-1.554-0.378-2.331-0.567c-5.407,9.465-8.276,20.364-15.348,29.128c2.177-11.275,4.354-22.551,6.531-33.826
		c-4.054,1.137-6.513,3.158-8.775,5.378c-11.656,11.434-23.229,22.954-34.934,34.337c-1.318,1.282-3.292,1.891-4.961,2.812
		c-0.479-0.542-0.957-1.084-1.436-1.625c5.064-6.584,10.129-13.167,15.689-20.396c-2.194,0-3.21-0.18-4.141,0.026
		c-27.91,6.164-55.825,12.31-83.696,18.646c-2.846,0.647-5.626,2.164-8.09,3.799c-13.041,8.657-26,17.437-38.931,26.257
		c-15.876,10.829-26.763,25.584-34.634,43c-7.832,17.333-7.357,34.165,1.021,51.007c1.408,2.831,2.805,5.667,4.911,9.924
		c-7.936-2.928-11.796-7.556-13.736-13.738c-1.79-5.704-2.958-11.601-4.565-17.367c-0.523-1.88-1.566-3.616-2.941-6.693
		c-4.962,17.709-1.002,31.844,8.922,44.751c9.4,12.226,21.954,20.312,35.636,26.677c25.985,12.09,53.383,13.312,81.153,8.922
		c21.881-3.458,39.211-14.607,50.616-33.825c12.563-21.17,25.283-42.291,36.724-64.071c12.376-23.563,23.256-47.907,35.028-71.793
		c2.023-4.106,5.002-7.833,8.03-11.308c1.175-1.349,3.71-1.512,6.181-2.419c1.756,8.454-1.249,14.93-3.534,21.374
		c-8.143,22.961-8.265,45.665,1.491,68.181c3.969,9.16,7.723,18.435,12.144,27.375c10.436,21.109,24.21,39.776,41.759,55.604
		c9.404,8.481,20.076,14.591,32.742,15.744c24.86,2.264,48.421-2.071,69.769-15.767c2.61-1.675,5.22-3.352,7.829-5.028
		c-1.993,3.872-4.879,6.484-7.979,8.813C493.891,1896.27,475.535,1900.052,457.536,1904.702z M313.72,1368.474
		c-0.134-0.751-0.268-1.502-0.4-2.253c-1.664-0.207-3.835-1.195-4.912-0.497c-8.359,5.416-17.774,9.946-24.509,16.999
		c-37.316,39.082-56.235,85.229-50.12,139.926c2.882,25.775,14.198,46.96,36.811,61.061c1.72,1.072,3.714,1.705,7.071,3.211
		c-11.28-18.618-23.878-34.633-25.279-55.668c11.251,24.413,25.876,45.995,49.508,63.287c2.438-18.832-0.216-35.915,2.859-52.766
		c2.121,5.95,3.242,12.021,4.579,18.045c1.255,5.652,0.363,12.068,5.904,18.137c0.997-10.637,1.825-19.565,2.676-28.492
		c0.272-2.856,0.851-5.438,5.739-4.046c0.403,4.899,0.905,10.14,1.245,15.39c0.323,4.984,0.222,10.01,0.776,14.965
		c0.55,4.908-1.284,10.337,3.236,16.056c2.891-12.938,5.492-24.587,8.094-36.234c0.856,0.107,1.713,0.215,2.569,0.322
		c1.282,12.322-1.796,24.866,0.878,37.615c10.259-15.863,16.422-33.529,26.552-49.443c1.292,2.158,1.771,4.177,1.214,5.851
		c-3.668,11.054-7.584,22.025-11.36,33.043c-0.976,2.849-1.74,5.77-3.122,10.401c10.71-8.583,16.879-18.037,21.695-28.327
		c4.666-9.969,8.662-20.25,12.952-30.395c0.804,0.141,1.607,0.281,2.411,0.421c0.342,4.911,0.684,9.821,1.146,16.472
		c6.1-7.07,7.925-14.108,9.682-20.992c7.658-30.02,4.345-59.479-5.299-88.473c-8.013-24.093-20.194-45.668-39.548-62.58
		c-12.754-11.145-23.479-12.286-38.559-4.718c-15.322,7.69-27.04,19.207-35.906,33.763c-2.076,3.408-4.008,6.927-6.367,10.128
		c-0.926,1.257-2.844,1.782-4.311,2.641c-0.545-0.571-1.091-1.143-1.636-1.714C276.479,1396.092,294.821,1382.06,313.72,1368.474z
		 M234.557,1655.365c-0.065-0.576-0.132-1.153-0.197-1.729c7.341-1.478,14.774-2.604,21.995-4.533
		c6.879-1.837,14.778-0.576,20.436-7.545c-5.257,0-10.515,0-15.771,0c-0.045-0.594-0.091-1.188-0.136-1.78
		c5.913-1.989,11.827-3.979,19.512-6.563c-16.987-7.39-32.036-13.936-46.824-20.369c0.772-4.463,2.028-6.351,5.591-4.597
		c4.179,2.056,8.397,4.03,12.559,6.12c11.915,5.985,23.964,6.135,37.249,0.886c-2.651-2.026-4.588-3.646-6.66-5.069
		c-27.996-19.226-56.166-38.202-83.968-57.702c-20.299-14.236-42.405-23.567-66.968-26.795c-15.937-2.095-29.898,2.617-40.525,14.72
		c-19.779,22.525-30.216,63.019-2.468,91.692c1.574,1.626,2.438,3.94,3.948,6.462c-4.51,0.436-7.564,0.73-11.33,1.095
		c10.688,27.886,29.698,45.191,57.821,51.145c48.757,10.321,95.977,5.583,140.901-16.99c0.82-0.412,1.541-1.022,2.545-1.701
		c-1.078-0.981-1.973-1.795-3.032-2.76c2.552-3.053,5.136-6.144,9.175-10.976c-5.087,1.583-7.874,2.52-10.7,3.319
		c-16.947,4.8-33.803,9.975-50.886,14.231c-16.521,4.116-33.426,5.918-50.496,4.957c-6.276-0.353-12.553-1.19-17.578-6.049
		c4.096-1.203,7.998-1.063,11.889-1.227c18.251-0.772,36.531-1.192,54.735-2.597c13.638-1.053,26.941-4.302,39.2-10.762
		c2.011-1.06,3.652-2.819,6.257-4.883C257.68,1655.365,246.118,1655.365,234.557,1655.365z M373.086,1664.445
		c-0.085,0.738-0.17,1.478-0.256,2.216c3.689,1.353,7.284,3.124,11.085,3.988c18.401,4.181,37.028,4.462,55.579,1.562
		c28.13-4.397,54.728-13.988,80.52-25.725c18.321-8.338,34.889-19.443,48.526-34.497c6.831-7.54,11.738-16.073,13.416-26.295
		c3.594-21.897-2.68-40.723-17.302-57.121c-2.424-2.718-6.233-4.639-7.083-9.957c6.541,1.698,9.029,6.747,12.79,10.078
		c3.949,3.498,7.218,7.801,12.771,12.117c-9.404-37.096-56.972-63.547-96.55-38.225c-7.53,4.819-14.814,10.347-21.187,16.594
		c-22.383,21.944-45.878,42.562-70.446,62.017c-8.591,6.804-16.523,14.445-24.668,21.802c-1.904,1.72-4.324,3.683-0.521,7.144
		c9.232-4.388,18.772-8.891,28.283-13.453c9.298-4.461,18.491-9.149,27.869-13.431c9.409-4.296,18.287-9.998,28.313-12.763
		c0.435,0.836,0.87,1.672,1.306,2.507c-22.363,13.947-44.727,27.894-67.231,41.929c1.889,2.287,3.118,3.777,4.65,5.633
		c-5.457,2.642-10.563,5.113-15.669,7.586c10.968,1.027,20.88-4.494,31.491-3.86c0.21,0.704,0.42,1.408,0.631,2.112
		c-11.527,5.097-23.055,10.193-35.649,15.762c11.862,4.463,23.653,1.505,34.487,6.566c-3.602,5.107-9.38,3.122-14.264,5.863
		c8.078,3.996,16.641-0.133,23.438,5.626C402.909,1664.307,387.655,1661.766,373.086,1664.445z"/>
	<path fill-rule="evenodd" clip-rule="evenodd" fill="#0D0D0D" opacity="0.3" d="M1622.288,478.541c-2.319,6.749-4.239,12.337-6.517,18.967
		c-7.535-3.377-13.375-8.103-19.09-12.96c-3.297-2.802-6.203-6.067-9.532-8.824c-3.499-2.896-5.686-5.896-5.638-10.914
		c0.031-3.388-1.345-7.488-3.514-10.08c-10.984-13.126-14.218-29.139-17.567-45.105c-2.528-12.054-4.481-24.227-6.811-36.323
		c-4.802-24.925-17.837-44.053-39.786-57.168c-20.439-12.214-34.87-29.809-43.641-51.816
		c-10.473-26.281-15.866-53.598-14.496-82.001c0.896-18.615,6.236-36.016,15.5-52.17c9.275-16.173,22.957-24.54,41.966-23.302
		c30.777,2.004,61.16-0.783,91.339-7.02c8.43-1.742,17.169-2.205,25.798-2.728c23.621-1.432,41.97,8.355,55.723,27.184
		c7.659,10.487,14.791,21.362,22.557,31.767c7.842,10.507,17.5,19.182,28.826,25.878c15.483,9.153,29.871,7.988,42.929-4.312
		c12.603-11.87,27.026-20.717,43.221-26.186c21.157-7.146,42.813-6.491,63.824,0.599c43.3,14.61,74.832,42.99,93.315,84.72
		c14.293,32.27,9.695,63.976-7.883,93.804c-26.974,45.771-67.054,74.117-118.53,86.182c-26.01,6.096-52.47,8.812-79.285,7.399
		c-14.951-0.787-29.227,2.532-42.267,9.851c-8.688,4.876-16.895,10.631-25.179,16.196c-5.526,3.714-10.768,7.849-16.211,11.688
		C1670.811,476.348,1649,485.899,1622.288,478.541z M1633.717,284.2c3.504,5.335,3.804,5.441,1.558,11.743
		c-9.129,25.611-9.221,52.264-9.25,78.902c-0.01,8.471,4.196,13.59,12.375,16.001c5.097,1.503,10.299,2.759,15.534,3.652
		c31.179,5.325,57.334-3.03,77.033-28.656c3.451-4.49,6.849-9.026,10.44-13.401c1.073-1.308,2.725-2.141,4.11-3.191
		c-2.9,11.858-11.441,20.32-16.609,31.419c1.851-0.162,2.877-0.001,3.669-0.358c15.966-7.221,30.197-16.839,41.8-30.147
		c9.286-10.653,16.385-22.611,21.954-35.553c0.866-2.012,2.333-3.766,3.521-5.638c0.643,0.375,1.285,0.75,1.928,1.125
		c-1.391,8.492-6.713,15.435-9.98,23.185c-3.241,7.687-8.104,14.754-9.256,23.437c2.327-0.553,4.023-1.438,5.181-2.787
		c11.279-13.145,22.506-26.335,33.672-39.575c11.09-13.149,16.535-28.772,19.158-45.452c1.691-10.758-1.718-19.925-11.03-26.002
		c-22.433-14.639-46.036-26.852-72.599-32.09c-11.734-2.314-23.644-3.729-35.458-5.643c-23.577-3.82-45.663-11.51-66.082-24.206
		c-18.233-11.337-31.773-7.747-42.505,10.896c-3.621,6.292-6.576,13.145-8.705,20.088c-10.284,33.549-12.72,67.961-10.216,102.808
		c0.33,4.594,1.435,9.133,2.18,13.696c2.383-3.029,3.097-5.876,3.556-8.763c2.094-13.15,4.095-26.314,6.184-39.466
		c0.396-2.492,0.227-5.717,5.177-4.567c-1.748,13.337-3.992,26.675-5.131,40.106c-1.395,16.451,0.782,29.951,5.518,40.321
		C1618.838,332.216,1625.997,309.114,1633.717,284.2z M1856.052,252.67c-1.247,10.15-1.855,19.477-3.616,28.58
		c-4.553,23.537-16.225,43.677-31.952,61.317c-11.512,12.912-24.151,24.821-36.325,37.141c-3.166,3.204-6.469,6.272-9.709,9.402
		c53.944,0.18,100.771-17.087,140.224-52.932c5.315,4.68,2.252,6.823-0.977,8.998c-19.066,12.843-38.132,25.688-57.168,38.574
		c-2.634,1.782-5.108,3.799-7.558,5.633c0.513,0.875,0.627,1.327,0.826,1.369c0.971,0.202,1.961,0.383,2.949,0.413
		c17.463,0.539,33.814-3.739,48.586-12.821c27.9-17.156,49.082-40.739,63.697-69.996c6.323-12.658,9.447-26.28,8.756-40.613
		c-1.064-22.027-15.814-35.607-37.912-34.665c-2.971,0.127-5.979,0.563-8.865,1.28c-18.082,4.487-36.143,9.063-54.191,13.681
		C1867.084,249.499,1861.407,251.183,1856.052,252.67z M1595.429,189.357c-13.304-16.673-25.331-34.435-41.617-48.35
		c-6.703-5.727-14.812-10.318-22.99-13.714c-25.701-10.672-41.034-4-51.505,21.873c-13.277,32.806-12.927,65.703,0.909,98.213
		c6.688,15.714,16.288,29.551,31.541,41.953c-5.915-18.761-13.185-35.344-6.753-55.257c0.545,2.868,0.879,3.824,0.888,4.782
		c0.226,25.788,11.476,46.221,30.954,62.305c10.262,8.474,21.182,16.154,31.871,24.102c1.721,1.279,3.795,2.08,6.736,3.653
		C1575.929,280.865,1573.325,233.527,1595.429,189.357z M1947.654,215.127c0-1.123,0.2-1.848-0.04-2.369
		c-0.554-1.201-1.286-2.326-2.007-3.442c-8.547-13.221-19.965-23.618-34.231-29.787c-15.201-6.572-31.116-11.545-46.87-16.765
		c-10.497-3.479-21.101-2.261-31.353,1.519c-20.442,7.538-36.329,22.164-55.133,34.385c21.28,12.092,41.358,23.067,62.561,31.98
		c10.209,4.292,20.495,5.961,31.179,3.504c24.297-5.591,48.519-11.515,72.756-17.366
		C1945.716,216.497,1946.771,215.607,1947.654,215.127z M1712.641,189.331c0.401-0.643,0.802-1.286,1.202-1.928
		c-15.75-19.709-31.121-39.739-47.403-58.999c-8.682-10.27-20.729-15.151-34.351-15.946c-12.12-0.707-23.813,1.439-35.478,4.297
		c-11.516,2.822-23.086,5.417-36.521,8.554c14.405,14.425,27.382,27.663,40.655,40.596c5.443,5.304,11.543,3.708,17.414,0.173
		c15.095-9.09,30.076-8.358,45.426-0.197c13.487,7.17,27.359,13.619,41.1,20.305
		C1707.242,187.429,1709.984,188.292,1712.641,189.331z M1657.088,456.293c0.813,0.85,1.626,1.699,2.438,2.549
		c21.5-14.284,43.012-28.551,64.461-42.911c0.876-0.587,1.169-2.044,2.356-4.254c-7.202-1.063-13.291-0.212-19.451,0.264
		c-15.246,1.179-30.567,3.275-45.771,2.7c-29.3-1.106-54.246-12.157-72.279-36.426c-2.986-4.02-6.855-7.382-10.316-11.048
		c0.135,12.595,1.652,24.082,5.916,35.757c3.492-4.587,6.328-8.312,9.165-12.036c0.69,0.231,1.381,0.464,2.071,0.696
		c2.002,9.886,4.003,19.771,6.003,29.648c3.856-0.863,6.623-1.483,10.936-2.449c0,9.244,0,17.564,0,25.884
		c0.76,0.213,1.519,0.426,2.278,0.64c4.137-5.343,8.274-10.686,12.627-16.307c6.871,3.865,2.321,8.583,1.989,12.51
		c-0.365,4.317-1.481,8.57-2.547,14.352c14.051-6.216,26.027-11.735,35.156-22.016c4.889-5.505,10.652-9.456,20.1-8.298
		C1673.254,436.516,1665.171,446.404,1657.088,456.293z"/>
	<path fill-rule="evenodd" clip-rule="evenodd" fill="#0D0D0D" opacity="0.3" d="M1295.635,1586.913c5.23-44.833,8.416-89.377-7.976-132.852
		C1313.242,1478.75,1320.584,1552.523,1295.635,1586.913z"/>
	<path fill-rule="evenodd" clip-rule="evenodd" fill="#0D0D0D" opacity="0.3" d="M736.986,1630.803c17.325,27.67,34.649,55.339,52.355,83.617
		C765.783,1708.875,739.184,1662.313,736.986,1630.803z"/>
	<path fill-rule="evenodd" clip-rule="evenodd" fill="#0D0D0D" opacity="0.3" d="M1028.413,1452.186c34.387,12.05,56.1,35.247,56.762,60.888
		c-7.237-7.684-13.438-14.257-19.629-20.842c-6.134-6.523-12.286-13.029-18.374-19.596
		C1040.884,1465.852,1034.663,1459.005,1028.413,1452.186z"/>
	<path fill-rule="evenodd" clip-rule="evenodd" fill="#0D0D0D" opacity="0.3" d="M520.418,1814.57c-2.381-1.462-3.543-1.768-3.982-2.504
		c-13.525-22.682-33.953-38.218-55.075-52.931c-18.119-12.62-35.295-26.245-49.74-43.067c-1.235-1.438-2.419-2.92-3.662-4.425
		c4.173-4.851,6.919-1.138,9.52,0.915c17.265,13.627,34.755,26.995,51.539,41.195c14.74,12.471,28.965,25.602,42.749,39.121
		c4.294,4.211,6.533,10.578,9.415,16.113C521.722,1810.026,520.846,1811.803,520.418,1814.57z"/>
	<path fill-rule="evenodd" clip-rule="evenodd" fill="#0D0D0D" opacity="0.3" d="M309.752,1736.911c-1.445,3.135-2.002,4.634-2.786,6.001
		c-14.543,25.353-29.049,50.728-43.701,76.017c-8.736,15.077-19.283,28.666-33.569,38.991c-1.329,0.962-2.791,1.746-4.224,2.555
		c-0.174,0.098-0.554-0.17-0.915-0.294c0.064-0.504-0.069-1.242,0.225-1.512c16.414-14.998,28.256-33.33,39.067-52.54
		c11.553-20.525,23.591-40.782,35.695-60.989C301.408,1742.027,303.254,1738.09,309.752,1736.911z"/>
	<path fill-rule="evenodd" clip-rule="evenodd" fill="#0D0D0D" opacity="0.3" d="M382.021,1494.598c-6.996-33.65-21.869-63.763-41.306-93.097
		C361.315,1411.237,385.648,1466.025,382.021,1494.598z"/>
	<path fill-rule="evenodd" clip-rule="evenodd" fill="#0D0D0D" opacity="0.3" d="M200.976,1581.521c-24.942-17.215-48.209-37.596-80.491-40.446
		C143.697,1534.97,189.124,1557.295,200.976,1581.521z"/>
</g>
</svg>
